<?xml version="1.0" encoding="UTF-8"?>
<!DOCTYPE svg PUBLIC "-//W3C//DTD SVG 1.0//EN" "http://www.w3.org/TR/2001/REC-SVG-20010904/DTD/svg10.dtd">
<!-- Creator: CorelDRAW X7 -->
<svg xmlns="http://www.w3.org/2000/svg" xml:space="preserve" width="3321px" height="1347px" version="1.0" style="shape-rendering:geometricPrecision; text-rendering:geometricPrecision; image-rendering:optimizeQuality; fill-rule:evenodd; clip-rule:evenodd"
viewBox="0 0 3306 1342"
 xmlns:xlink="http://www.w3.org/1999/xlink">
 <defs>
  <style type="text/css">
   <![CDATA[
    .fil2 {fill:#2B2A29}
    .fil1 {fill:#E31E24}
    .fil0 {fill:#2CA50C}
    .fil3 {fill:#FEFEFE;fill-rule:nonzero}
   ]]>
  </style>
 </defs>
 <g id="Layer_x0020_1">
  <metadata id="CorelCorpID_0Corel-Layer"/>
  <g id="_930352464">
   <path class="fil0" d="M342 854l0 390c0,51 42,93 94,93l2543 0c51,0 93,-42 93,-93l0 -390 140 0c49,0 90,-40 90,-90l0 -670c0,-49 -41,-89 -90,-89l-2870 0 0 0c-207,0 -138,-33 -337,424 199,458 130,425 337,425z"/>
   <path class="fil1" d="M1263 1333l0 -258 449 0 0 258 -449 0zm1606 -622c0,-65 40,-117 90,-117 50,0 90,52 90,117 0,64 -40,117 -90,117 -50,0 -90,-53 -90,-117zm-2495 -281c0,-65 40,-117 90,-117 50,0 91,52 91,117 0,64 -41,116 -91,116 -50,0 -90,-52 -90,-116zm227 -282c0,-65 40,-117 90,-117 50,0 90,52 90,117 0,64 -40,117 -90,117 -50,0 -90,-53 -90,-117zm0 563c0,-65 40,-117 90,-117 50,0 90,52 90,117 0,64 -40,117 -90,117 -50,0 -90,-53 -90,-117zm227 -281c0,-65 40,-117 90,-117 50,0 90,52 90,117 0,64 -40,116 -90,116 -50,0 -90,-52 -90,-116zm226 -282c0,-65 41,-117 91,-117 50,0 90,52 90,117 0,64 -40,117 -90,117 -50,0 -91,-53 -91,-117zm0 563c0,-65 41,-117 91,-117 50,0 90,52 90,117 0,64 -40,117 -90,117 -50,0 -91,-53 -91,-117zm227 -281c0,-65 41,-117 90,-117 50,0 91,52 91,117 0,64 -41,116 -91,116 -49,0 -90,-52 -90,-116zm227 -282c0,-65 40,-117 90,-117 50,0 91,52 91,117 0,64 -41,117 -91,117 -50,0 -90,-53 -90,-117zm0 563c0,-65 40,-117 90,-117 50,0 91,52 91,117 0,64 -41,117 -91,117 -50,0 -90,-53 -90,-117zm227 -281c0,-65 40,-117 90,-117 50,0 90,52 90,117 0,64 -40,116 -90,116 -50,0 -90,-52 -90,-116zm226 -282c0,-65 41,-117 91,-117 50,0 90,52 90,117 0,64 -40,117 -90,117 -50,0 -91,-53 -91,-117zm0 563c0,-65 41,-117 91,-117 50,0 90,52 90,117 0,64 -40,117 -90,117 -50,0 -91,-53 -91,-117zm227 -281c0,-65 41,-117 91,-117 49,0 90,52 90,117 0,64 -41,116 -90,116 -50,0 -91,-52 -91,-116zm227 -282c0,-65 40,-117 90,-117 50,0 91,52 91,117 0,64 -41,117 -91,117 -50,0 -90,-53 -90,-117zm227 282c0,-65 40,-117 90,-117 50,0 90,52 90,117 0,64 -40,116 -90,116 -50,0 -90,-52 -90,-116zm-227 281c0,-65 40,-117 90,-117 50,0 91,52 91,117 0,64 -41,117 -91,117 -50,0 -90,-53 -90,-117zm454 -563c0,-65 40,-117 90,-117 50,0 90,52 90,117 0,64 -40,117 -90,117 -50,0 -90,-53 -90,-117z"/>
   <path class="fil2" d="M1721 1333l440 0 0 -258 -440 0 0 258zm1148 -903c0,-65 40,-117 90,-117 50,0 90,52 90,117 0,64 -40,116 -90,116 -50,0 -90,-52 -90,-116zm-2495 -282c0,-65 40,-117 90,-117 50,0 91,52 91,117 0,64 -41,117 -91,117 -50,0 -90,-53 -90,-117zm0 563c0,-65 40,-117 90,-117 50,0 91,52 91,117 0,64 -41,117 -91,117 -50,0 -90,-53 -90,-117zm227 -281c0,-65 40,-117 90,-117 50,0 90,52 90,117 0,64 -40,116 -90,116 -50,0 -90,-52 -90,-116zm227 -282c0,-65 40,-117 90,-117 50,0 90,52 90,117 0,64 -40,117 -90,117 -50,0 -90,-53 -90,-117zm0 563c0,-65 40,-117 90,-117 50,0 90,52 90,117 0,64 -40,117 -90,117 -50,0 -90,-53 -90,-117zm226 -281c0,-65 41,-117 91,-117 50,0 90,52 90,117 0,64 -40,116 -90,116 -50,0 -91,-52 -91,-116zm227 -282c0,-65 41,-117 90,-117 50,0 91,52 91,117 0,64 -41,117 -91,117 -49,0 -90,-53 -90,-117zm0 563c0,-65 41,-117 90,-117 50,0 91,52 91,117 0,64 -41,117 -91,117 -49,0 -90,-53 -90,-117zm227 -281c0,-65 40,-117 90,-117 50,0 91,52 91,117 0,64 -41,116 -91,116 -50,0 -90,-52 -90,-116zm227 -282c0,-65 40,-117 90,-117 50,0 90,52 90,117 0,64 -40,117 -90,117 -50,0 -90,-53 -90,-117zm0 563c0,-65 40,-117 90,-117 50,0 90,52 90,117 0,64 -40,117 -90,117 -50,0 -90,-53 -90,-117zm226 -281c0,-65 41,-117 91,-117 50,0 90,52 90,117 0,64 -40,116 -90,116 -50,0 -91,-52 -91,-116zm227 -282c0,-65 41,-117 91,-117 49,0 90,52 90,117 0,64 -41,117 -90,117 -50,0 -91,-53 -91,-117zm0 563c0,-65 41,-117 91,-117 49,0 90,52 90,117 0,64 -41,117 -90,117 -50,0 -91,-53 -91,-117zm227 -281c0,-65 40,-117 90,-117 50,0 91,52 91,117 0,64 -41,116 -91,116 -50,0 -90,-52 -90,-116zm227 -282c0,-65 40,-117 90,-117 50,0 90,52 90,117 0,64 -40,117 -90,117 -50,0 -90,-53 -90,-117zm0 563c0,-65 40,-117 90,-117 50,0 90,52 90,117 0,64 -40,117 -90,117 -50,0 -90,-53 -90,-117z"/>
   <path class="fil3" d="M338 849l0 -840c-11,0 -23,0 -34,0 -68,-1 -98,-1 -124,32 -21,26 -41,74 -75,160 -23,58 -53,132 -95,228 42,97 72,171 95,229 34,86 54,134 75,160 26,33 56,33 124,32 11,0 23,-1 34,-1zm2625 -654l-11 0c0,-5 -1,-8 -3,-10 -1,-2 -3,-3 -7,-3 -3,0 -6,1 -9,4 -2,2 -3,5 -3,10 0,2 0,4 1,6 1,2 2,3 4,5 0,-3 0,-5 2,-6 1,-2 3,-2 6,-2 3,0 6,1 7,3 2,2 3,4 3,8 0,4 -1,7 -3,9 -3,2 -5,3 -9,3 -7,0 -12,-3 -17,-9 -4,-6 -6,-15 -6,-26 0,-10 2,-17 6,-23 4,-5 9,-8 15,-8 4,0 8,2 11,4 2,2 5,6 6,10 2,-5 4,-10 8,-12 3,-3 7,-5 12,-5 7,0 13,4 17,10 4,6 6,14 6,25 0,12 -1,21 -5,27 -3,6 -9,9 -15,9 -4,0 -8,-1 -10,-4 -3,-2 -4,-6 -4,-10 0,-3 1,-6 3,-8 2,-3 4,-4 7,-4 3,0 6,1 7,3 2,1 3,4 3,7 1,-1 2,-3 2,-5 1,-2 1,-4 1,-7 0,-5 -1,-9 -4,-11 -2,-3 -5,-4 -9,-4 -4,0 -7,1 -9,3 -2,3 -3,6 -3,11zm-10 -80c-1,-3 -2,-6 -3,-9 -1,-3 -1,-6 -1,-8 0,-8 2,-15 6,-19 5,-5 11,-8 18,-8 9,0 15,3 20,9 4,5 6,13 6,23 0,12 -3,21 -10,28 -6,6 -16,10 -28,10 -13,0 -24,-4 -31,-11 -8,-7 -12,-17 -12,-29 0,-8 2,-15 5,-20 4,-5 8,-7 13,-7 3,0 6,1 8,3 2,2 3,5 3,9 0,3 -1,6 -3,8 -2,3 -4,4 -7,4 -1,0 -3,-1 -4,-1 -1,-1 -2,-2 -3,-4 0,1 -1,2 -1,3 0,1 0,2 0,2 0,5 2,9 7,12 4,3 10,5 17,5l0 0zm36 -10c0,-3 -1,-5 -4,-6 -2,-2 -6,-3 -10,-3 -4,0 -8,1 -10,3 -3,1 -4,3 -4,6 0,3 1,5 4,6 2,2 6,3 10,3 4,0 8,-1 10,-3 3,-1 4,-3 4,-6zm-253 90l-11 0c0,-5 -1,-8 -2,-10 -2,-2 -4,-3 -7,-3 -4,0 -7,1 -9,3 -3,3 -4,6 -4,10 0,3 1,5 1,7 1,2 2,3 4,4 0,-2 1,-4 2,-5 2,-2 4,-3 6,-3 3,0 6,1 7,3 2,2 3,5 3,9 0,4 -1,7 -3,9 -2,2 -5,3 -9,3 -7,0 -12,-3 -16,-9 -4,-7 -7,-15 -7,-26 0,-10 2,-17 6,-23 4,-5 9,-8 16,-8 4,0 7,1 10,4 3,2 5,6 6,10 2,-5 5,-10 8,-13 3,-2 7,-4 12,-4 8,0 13,3 17,9 5,7 7,15 7,26 0,12 -2,21 -6,27 -3,6 -8,9 -15,9 -4,0 -8,-1 -10,-4 -3,-2 -4,-6 -4,-10 0,-3 1,-6 3,-9 2,-2 4,-3 8,-3 3,0 5,1 6,3 2,1 3,4 3,7 1,-1 2,-3 2,-5 1,-2 1,-5 1,-7 0,-5 -1,-9 -3,-12 -3,-2 -6,-4 -10,-4 -4,0 -7,2 -9,4 -2,3 -3,6 -3,11zm0 -82l-11 0c0,-5 -1,-8 -2,-10 -2,-2 -4,-3 -7,-3 -4,0 -7,1 -9,4 -3,2 -4,5 -4,10 0,2 1,4 1,6 1,2 2,3 4,4 0,-2 1,-4 2,-5 2,-2 4,-2 6,-2 3,0 6,1 7,3 2,2 3,4 3,8 0,4 -1,7 -3,9 -2,2 -5,3 -9,3 -7,0 -12,-3 -16,-9 -4,-7 -7,-15 -7,-26 0,-10 2,-17 6,-23 4,-5 9,-8 16,-8 4,0 7,2 10,4 3,2 5,6 6,10 2,-5 5,-10 8,-12 3,-3 7,-5 12,-5 8,0 13,4 17,10 5,6 7,14 7,25 0,12 -2,21 -6,27 -3,6 -8,9 -15,9 -4,0 -8,-1 -10,-4 -3,-2 -4,-6 -4,-10 0,-3 1,-6 3,-8 2,-3 4,-4 8,-4 3,0 5,1 6,3 2,1 3,4 3,7 1,-1 2,-3 2,-5 1,-2 1,-5 1,-7 0,-5 -1,-9 -3,-11 -3,-3 -6,-4 -10,-4 -4,0 -7,1 -9,3 -2,3 -3,6 -3,11zm-227 83l-10 0c-1,-4 -2,-8 -3,-10 -2,-2 -4,-3 -7,-3 -4,0 -7,1 -9,4 -2,2 -3,6 -3,10 0,2 0,5 1,6 0,2 1,4 3,5 0,-3 1,-4 2,-6 2,-1 4,-2 6,-2 3,0 6,1 8,3 1,2 2,5 2,8 0,4 -1,7 -3,9 -2,3 -5,4 -8,4 -7,0 -13,-3 -17,-10 -4,-6 -6,-15 -6,-26 0,-9 2,-17 5,-22 4,-6 9,-8 16,-8 4,0 7,1 10,3 3,3 5,6 6,11 2,-6 5,-10 8,-13 3,-3 8,-4 13,-4 7,0 13,3 17,9 4,6 6,14 6,25 0,12 -2,21 -5,27 -4,7 -9,10 -16,10 -4,0 -7,-2 -10,-4 -3,-3 -4,-6 -4,-10 0,-4 1,-7 3,-9 2,-2 5,-3 8,-3 3,0 5,0 7,2 1,2 2,4 2,8 1,-2 2,-4 3,-6 0,-2 0,-4 0,-7 0,-5 -1,-8 -3,-11 -2,-3 -6,-4 -10,-4 -4,0 -7,1 -9,4 -2,2 -3,6 -3,10zm-4 -99c-10,0 -17,1 -21,3 -5,1 -7,4 -7,7 0,4 2,7 7,9 4,1 11,2 21,2 10,0 18,-1 22,-2 4,-2 7,-5 7,-8 0,-4 -3,-7 -7,-8 -4,-2 -12,-3 -22,-3zm0 48c-12,0 -22,-3 -29,-10 -8,-7 -11,-16 -11,-28 0,-11 3,-20 11,-27 7,-7 17,-10 29,-10 13,0 22,3 30,10 7,7 11,16 11,28 0,11 -4,20 -11,27 -8,7 -17,10 -30,10zm-188 80c0,0 -1,0 -1,0 -1,0 -1,0 -2,0 -6,0 -11,-1 -15,-3 -4,-3 -9,-7 -13,-12 -2,-2 -4,-6 -7,-10 -2,-5 -5,-8 -6,-10 -1,-2 -3,-3 -5,-4 -2,-1 -4,-2 -6,-2 -3,0 -6,2 -8,4 -2,2 -2,5 -2,10 0,2 0,5 1,7 1,2 2,4 4,5l0 0c0,-3 0,-6 2,-7 1,-2 4,-3 6,-3 4,0 7,1 9,3 2,3 3,6 3,10 0,3 -1,7 -3,9 -3,2 -6,3 -10,3 -8,0 -14,-3 -19,-9 -5,-7 -7,-15 -7,-25 0,-10 2,-18 7,-24 5,-7 11,-10 19,-10 6,0 11,2 15,7 4,4 8,11 11,21 0,1 0,3 1,5 3,11 6,16 10,17 -1,-2 -3,-5 -3,-8 -1,-2 -1,-5 -1,-8 0,-3 0,-6 1,-10 1,-4 2,-7 2,-8 0,-2 -1,-3 -3,-4 -1,-1 -3,-2 -6,-2l-1 0 0 -12c0,0 1,-1 2,-1 0,0 1,0 2,0 9,0 15,2 19,6 4,3 6,9 6,16 0,5 -1,10 -3,17 -2,6 -3,11 -3,12 0,2 1,3 1,4 1,1 2,2 3,3l0 13zm0 -102c-1,0 -1,0 -2,0 0,0 -1,0 -2,0 -7,0 -12,-1 -17,-3 -5,-1 -10,-4 -15,-8 -2,-2 -6,-5 -11,-11 -5,-5 -9,-9 -12,-12 1,2 2,4 2,6 1,1 1,3 1,5 0,3 0,6 -1,10 -1,3 -1,6 -1,7 0,3 1,5 3,7 2,1 5,2 9,2 2,0 2,0 3,0 1,0 1,0 2,0l0 14 -36 0 0 -14 8 0c-3,-2 -6,-4 -7,-7 -2,-3 -3,-6 -3,-9 0,-5 2,-9 4,-15 2,-5 3,-8 3,-9 0,-2 -1,-3 -1,-3 -1,-1 -2,-1 -3,-1l-1 0 0 -11c0,0 1,-1 1,-1 0,0 1,0 1,0 6,0 14,4 25,11 2,1 3,2 4,3 8,5 16,8 22,10 7,2 14,3 21,3l3 0 0 26zm-227 102c0,0 -1,0 -1,0 -1,0 -1,0 -2,0 -5,0 -10,-1 -15,-4 -4,-2 -8,-6 -13,-11 -1,-2 -4,-6 -6,-11 -3,-4 -5,-8 -7,-10 -1,-1 -3,-3 -5,-4 -2,0 -4,-1 -6,-1 -3,0 -6,1 -7,4 -2,2 -3,5 -3,9 0,3 0,5 1,7 1,2 2,4 4,6l0 -1c0,-3 1,-5 2,-7 2,-1 4,-2 7,-2 3,0 6,1 8,3 3,2 4,5 4,9 0,4 -2,7 -4,10 -3,2 -6,3 -10,3 -7,0 -14,-3 -19,-10 -4,-6 -7,-14 -7,-24 0,-10 3,-18 7,-25 5,-6 11,-9 19,-9 6,0 12,2 15,6 4,4 8,12 11,22 0,1 1,3 1,5 3,10 6,16 10,17 -1,-3 -2,-5 -3,-8 -1,-3 -1,-5 -1,-8 0,-3 0,-6 1,-10 1,-5 2,-7 2,-9 0,-1 -1,-3 -2,-4 -2,0 -4,-1 -7,-1l-1 0 0 -13c1,0 1,0 2,0 0,0 1,0 3,0 8,0 15,2 18,5 4,4 6,9 6,17 0,5 -1,10 -3,17 -2,6 -3,10 -3,12 0,2 1,3 1,4 1,1 2,2 3,2l0 14zm-22 -142l6 0c2,0 3,-1 4,-2 1,-1 1,-3 1,-7l0 -3 11 0 0 49 -11 0 0 -4c0,-4 0,-6 -1,-7 -1,-2 -3,-2 -6,-2l-1 0 -3 0 0 38 -13 0 -42 -39 0 -23 44 0 0 -12 11 0 0 12zm-11 48l0 -24 -27 -1 27 25zm-194 88c0,0 0,0 -1,0 -1,0 -1,0 -1,0 -6,0 -11,-1 -16,-3 -4,-3 -8,-6 -12,-12 -2,-2 -4,-5 -7,-10 -3,-5 -5,-8 -7,-10 -1,-2 -3,-3 -4,-4 -2,-1 -4,-2 -6,-2 -4,0 -6,2 -8,4 -2,2 -3,6 -3,10 0,2 0,5 1,7 1,2 2,4 4,5l0 0c0,-3 1,-6 2,-7 2,-2 4,-3 7,-3 4,0 7,1 9,4 2,2 3,5 3,9 0,4 -1,7 -4,9 -2,2 -6,3 -10,3 -7,0 -13,-3 -18,-9 -5,-6 -8,-15 -8,-25 0,-10 3,-18 8,-24 4,-6 11,-10 18,-10 7,0 12,3 16,7 4,4 7,11 10,21 0,2 1,3 2,6 2,10 6,15 9,17 -1,-3 -2,-6 -3,-9 -1,-2 -1,-5 -1,-8 0,-2 1,-6 2,-10 1,-4 1,-7 1,-8 0,-2 -1,-3 -2,-4 -1,-1 -4,-1 -7,-1l-1 0 0 -13c1,0 1,0 2,0 1,0 2,0 3,0 8,0 15,1 19,5 4,3 6,9 6,16 0,5 -1,11 -3,17 -2,7 -3,11 -3,13 0,1 0,3 1,4 0,1 1,1 2,2l0 13zm-55 -93l-12 0c0,-5 -1,-9 -3,-12 -1,-3 -4,-5 -7,-6l0 -20 61 0c2,0 4,0 4,-1 1,-2 1,-4 1,-8l0 -3 11 0 0 50 -11 0 0 -3c0,-4 0,-7 -1,-8 0,-1 -3,-2 -6,-2l0 0 -37 0 0 13zm-227 93l-11 0c-1,-5 -2,-9 -3,-12 -2,-3 -4,-5 -7,-6l0 -20 60 0c2,0 4,0 5,-1 0,-2 1,-4 1,-8l0 -3 11 0 0 50 -11 0 0 -3c0,-4 -1,-7 -1,-8 -1,-1 -3,-2 -7,-2l0 0 -37 0 0 13zm18 -83c-3,3 -5,6 -8,8 -3,2 -6,3 -10,3 -7,0 -13,-3 -17,-10 -4,-6 -6,-14 -6,-24 0,-10 1,-18 5,-24 3,-5 8,-8 14,-8 4,0 7,1 9,3 2,2 4,5 6,9 2,-6 5,-10 9,-13 3,-2 8,-4 13,-4 8,0 14,4 18,10 5,7 7,17 7,29 0,11 -2,20 -6,26 -4,6 -9,9 -16,9 -4,0 -8,-1 -11,-3 -3,-3 -5,-6 -7,-11zm6 -12c1,3 3,5 5,6 2,2 4,2 6,2 4,0 7,-1 9,-5 2,-3 3,-7 3,-13 0,-4 0,-8 -2,-10 -1,-3 -3,-4 -6,-4 -2,0 -4,1 -5,3 -2,2 -4,5 -5,9l-5 12zm-19 -18c-1,-3 -2,-4 -4,-6 -1,-1 -3,-1 -5,-1 -2,0 -4,1 -6,3 -1,3 -2,6 -2,10 0,3 0,6 2,9 1,2 3,3 5,3 1,0 3,-1 4,-3 1,-1 3,-4 4,-8l2 -7zm-232 112l-11 0c0,-6 -1,-10 -3,-13 -1,-3 -4,-5 -7,-6l0 -20 61 0c2,0 3,0 4,-1 1,-1 1,-4 1,-8l0 -3 11 0 0 51 -11 0 0 -4c0,-4 0,-6 -1,-8 -1,-1 -3,-1 -6,-1l-1 0 -37 0 0 13zm17 -76l-39 -3c0,-7 1,-13 1,-17 0,-4 0,-8 0,-11 0,-8 -1,-15 -2,-23 0,-2 -1,-3 -1,-3 0,-1 1,-2 1,-2 1,-1 2,-1 2,-1 4,0 8,3 11,9 4,6 5,13 5,21 0,2 0,4 0,6 0,2 0,5 -1,9l10 1c-1,-3 -2,-5 -3,-8 0,-3 -1,-6 -1,-9 0,-10 3,-18 8,-24 5,-6 12,-9 21,-9 9,0 16,4 21,10 6,7 9,16 9,27 0,10 -2,18 -7,24 -4,5 -9,8 -16,8 -4,0 -7,-1 -9,-4 -3,-2 -4,-5 -4,-10 0,-3 1,-6 3,-8 2,-3 5,-4 8,-4 3,0 5,1 6,2 2,2 3,4 3,7 2,-1 3,-3 3,-5 1,-1 1,-3 1,-5 0,-4 -1,-8 -5,-11 -3,-3 -8,-4 -13,-4 -5,0 -9,1 -12,4 -3,2 -4,5 -4,9 0,2 0,4 1,5 1,2 2,4 3,5l0 14zm-244 77l-11 0c0,-5 -1,-10 -3,-13 -2,-3 -4,-5 -7,-6l0 -20 61 0c2,0 3,0 4,-1 1,-1 1,-4 1,-8l0 -2 11 0 0 50 -11 0 0 -4c0,-4 0,-6 -1,-8 -1,-1 -3,-1 -6,-1l-1 0 -37 0 0 13zm56 -71c0,0 -1,0 -1,0 -1,0 -1,0 -2,0 -5,0 -10,-1 -15,-4 -4,-2 -8,-6 -13,-11 -1,-3 -4,-6 -6,-11 -3,-4 -5,-8 -7,-10 -1,-1 -3,-3 -5,-4 -2,-1 -4,-1 -6,-1 -3,0 -6,1 -8,4 -1,2 -2,5 -2,9 0,3 0,5 1,7 1,2 2,4 4,6l0 -1c0,-3 0,-5 2,-7 2,-1 4,-2 7,-2 3,0 6,1 8,3 2,2 4,5 4,9 0,4 -2,7 -4,9 -3,3 -6,4 -10,4 -8,0 -14,-3 -19,-10 -5,-6 -7,-14 -7,-24 0,-10 2,-18 7,-25 5,-6 11,-9 19,-9 6,0 11,2 15,6 4,4 8,12 11,22 0,1 1,3 1,5 3,10 6,16 10,17 -1,-3 -2,-5 -3,-8 -1,-3 -1,-5 -1,-8 0,-3 0,-6 1,-10 1,-5 2,-7 2,-9 0,-1 -1,-3 -2,-4 -2,0 -4,-1 -7,-1l-1 0 0 -13c1,0 1,0 2,0 0,0 1,0 2,0 9,0 15,2 19,5 4,4 6,9 6,17 0,4 -1,10 -3,17 -2,6 -3,10 -3,12 0,2 1,3 1,4 1,1 2,2 3,2l0 14zm-260 -9c2,3 3,6 4,8 1,3 1,6 1,9 0,8 -2,15 -7,19 -4,5 -10,8 -17,8 -8,0 -15,-3 -20,-9 -4,-6 -7,-14 -7,-23 0,-12 4,-21 11,-28 7,-7 16,-10 28,-10 13,0 23,4 31,11 8,7 12,17 12,29 0,8 -2,15 -5,20 -4,4 -8,7 -13,7 -4,0 -6,-1 -8,-3 -2,-3 -3,-6 -3,-9 0,-4 1,-6 3,-9 1,-2 4,-3 6,-3 2,0 3,0 5,1 1,1 2,2 3,3 0,0 0,-1 0,-2 1,-1 1,-2 1,-3 0,-5 -3,-9 -7,-12 -4,-3 -10,-4 -17,-4l-1 0zm-35 10c0,3 1,5 4,6 2,2 6,3 10,3 4,0 7,-1 10,-3 2,-1 4,-3 4,-6 0,-3 -2,-5 -4,-7 -3,-1 -6,-2 -10,-2 -5,0 -8,1 -10,2 -3,2 -4,4 -4,7zm-202 8c-2,-3 -3,-6 -4,-9 -1,-3 -1,-6 -1,-9 0,-7 2,-14 7,-19 4,-4 10,-7 18,-7 8,0 14,3 19,9 4,5 7,13 7,23 0,12 -4,21 -10,28 -7,6 -16,10 -29,10 -13,0 -23,-4 -31,-11 -8,-7 -11,-17 -11,-30 0,-8 1,-14 4,-19 4,-5 8,-7 13,-7 4,0 6,1 8,3 2,2 3,5 3,9 0,3 -1,6 -3,8 -1,2 -4,4 -6,4 -2,0 -3,-1 -5,-2 -1,0 -2,-1 -3,-3 0,1 0,2 0,3 -1,1 -1,1 -1,2 0,5 3,9 7,12 4,3 10,5 17,5l1 0zm35 -10c0,-3 -1,-5 -4,-6 -2,-2 -6,-3 -10,-3 -4,0 -7,1 -10,3 -2,1 -4,3 -4,6 0,3 2,5 4,6 3,2 6,3 10,3 5,0 8,-1 10,-3 3,-1 4,-3 4,-6zm-253 9l-10 0c-1,-4 -1,-8 -3,-10 -2,-2 -4,-3 -7,-3 -4,0 -7,1 -9,4 -2,2 -3,6 -3,10 0,3 0,5 1,6 0,2 2,4 3,5 0,-2 1,-4 2,-6 2,-1 4,-2 6,-2 4,0 6,1 8,3 1,2 2,5 2,9 0,3 -1,6 -3,8 -2,3 -5,4 -8,4 -7,0 -13,-3 -17,-10 -4,-6 -6,-15 -6,-26 0,-9 2,-17 5,-22 4,-6 9,-8 16,-8 4,0 7,1 10,3 3,3 5,6 6,11 2,-6 5,-10 8,-13 4,-3 8,-4 13,-4 7,0 13,3 17,9 4,6 6,14 6,25 0,12 -2,21 -5,27 -4,7 -9,10 -16,10 -4,0 -7,-2 -10,-4 -3,-3 -4,-6 -4,-10 0,-4 1,-7 3,-9 2,-2 5,-3 8,-3 3,0 5,0 7,2 1,2 2,4 2,8 1,-2 2,-4 3,-6 0,-2 0,-4 0,-7 0,-5 -1,-8 -3,-11 -2,-3 -6,-4 -10,-4 -4,0 -7,1 -9,4 -2,2 -3,6 -3,10zm2495 320l-11 0c0,-5 -1,-8 -2,-10 -2,-2 -4,-3 -7,-3 -4,0 -7,1 -9,4 -2,2 -4,5 -4,10 0,2 1,4 2,6 0,2 1,3 3,5 0,-3 1,-5 2,-6 2,-2 4,-2 6,-2 3,0 6,1 8,3 1,2 2,5 2,8 0,4 -1,7 -3,9 -2,2 -5,4 -9,4 -6,0 -12,-4 -16,-10 -4,-6 -6,-15 -6,-26 0,-10 1,-17 5,-22 4,-6 9,-9 16,-9 4,0 7,2 10,4 3,2 5,6 6,10 2,-5 5,-9 8,-12 3,-3 8,-4 12,-4 8,0 13,3 18,9 4,6 6,14 6,25 0,12 -2,21 -5,27 -4,6 -9,10 -16,10 -4,0 -7,-2 -10,-4 -3,-3 -4,-7 -4,-11 0,-3 1,-6 3,-8 2,-3 5,-4 8,-4 3,0 5,1 6,3 2,1 3,4 3,8 1,-2 2,-4 2,-6 1,-2 1,-4 1,-7 0,-5 -1,-9 -3,-11 -2,-3 -6,-4 -10,-4 -4,0 -7,1 -9,3 -2,3 -3,6 -3,11zm-4 -58l-40 -3c1,-7 1,-13 1,-17 1,-4 1,-8 1,-11 0,-8 -1,-15 -3,-23 0,-2 0,-3 0,-3 0,-1 0,-2 1,-2 0,-1 1,-1 2,-1 4,0 7,3 11,9 3,6 5,13 5,21 0,2 0,4 -1,6 0,2 0,5 0,9l10 1c-2,-3 -3,-5 -3,-8 -1,-3 -1,-6 -1,-9 0,-10 2,-18 7,-24 6,-6 13,-9 22,-9 8,0 15,4 21,10 5,7 8,16 8,27 0,10 -2,18 -6,24 -4,5 -10,8 -17,8 -4,0 -7,-1 -9,-4 -2,-2 -4,-5 -4,-10 0,-3 1,-6 3,-8 2,-3 5,-4 8,-4 3,0 5,1 7,2 1,2 2,4 3,7 1,-1 2,-3 3,-5 0,-1 1,-3 1,-5 0,-4 -2,-8 -5,-11 -4,-3 -8,-4 -14,-4 -5,0 -8,1 -11,4 -3,2 -5,5 -5,9 0,2 1,4 1,5 1,2 2,4 4,5l0 14zm-223 59l-11 0c0,-4 -1,-8 -2,-10 -2,-2 -4,-3 -7,-3 -4,0 -7,1 -9,4 -3,2 -4,5 -4,10 0,2 1,4 1,6 1,2 2,3 4,5 0,-3 0,-5 2,-6 2,-2 3,-2 6,-2 3,0 6,1 7,3 2,2 3,5 3,8 0,4 -1,7 -3,9 -2,2 -5,4 -9,4 -7,0 -12,-4 -16,-10 -5,-6 -7,-15 -7,-26 0,-10 2,-17 6,-22 4,-6 9,-9 15,-9 5,0 8,2 11,4 3,2 5,6 6,11 2,-6 5,-10 8,-13 3,-3 7,-4 12,-4 8,0 13,3 17,9 5,6 7,14 7,25 0,12 -2,21 -6,27 -3,6 -8,10 -15,10 -4,0 -8,-2 -10,-4 -3,-3 -4,-7 -4,-11 0,-3 1,-6 3,-8 2,-3 4,-4 8,-4 3,0 5,1 6,3 2,1 3,4 3,8 1,-2 2,-4 2,-6 1,-2 1,-4 1,-7 0,-5 -1,-9 -3,-11 -3,-3 -6,-4 -10,-4 -4,0 -7,1 -9,3 -2,3 -3,6 -3,11zm35 -53c-1,0 -1,0 -2,0 0,0 -1,0 -1,0 -6,0 -11,-1 -15,-4 -5,-2 -9,-6 -13,-11 -2,-3 -4,-6 -7,-11 -3,-4 -5,-8 -7,-10 -1,-1 -2,-3 -4,-4 -2,-1 -4,-1 -6,-1 -4,0 -6,1 -8,4 -2,2 -3,5 -3,9 0,3 0,5 1,7 1,2 2,4 4,6l0 -1c0,-3 1,-5 2,-7 2,-1 4,-2 7,-2 4,0 7,1 9,3 2,2 3,5 3,9 0,4 -1,7 -4,9 -2,3 -5,4 -10,4 -7,0 -13,-3 -18,-10 -5,-6 -8,-14 -8,-24 0,-10 3,-18 8,-25 4,-6 11,-9 18,-9 7,0 12,2 16,6 4,4 7,12 10,22 1,1 1,3 2,5 2,10 6,16 10,17 -2,-3 -3,-5 -4,-8 0,-3 -1,-5 -1,-8 0,-3 1,-6 2,-10 1,-5 1,-7 1,-9 0,-1 -1,-3 -2,-4 -1,0 -4,-1 -6,-1l-2 0 0 -13c1,0 2,0 2,0 1,0 2,0 3,0 8,0 15,2 19,5 4,4 6,9 6,17 0,4 -1,10 -3,17 -2,6 -3,10 -3,12 0,2 0,3 1,4 0,1 1,2 3,2l0 14zm-227 81c-1,0 -1,0 -2,0 0,0 -1,0 -1,0 -6,0 -11,-1 -15,-3 -5,-3 -9,-6 -13,-12 -2,-2 -4,-5 -7,-10 -3,-5 -5,-8 -6,-10 -2,-2 -3,-3 -5,-4 -2,-1 -4,-1 -6,-1 -3,0 -6,1 -8,3 -2,2 -3,6 -3,10 0,2 1,5 2,7 0,2 2,4 3,5l0 0c0,-3 1,-6 3,-7 1,-2 3,-3 6,-3 4,0 7,1 9,4 2,2 3,5 3,9 0,4 -1,7 -3,9 -3,2 -6,3 -10,3 -8,0 -14,-3 -19,-9 -5,-6 -7,-15 -7,-25 0,-10 2,-18 7,-24 5,-6 11,-9 19,-9 6,0 11,2 15,6 4,4 7,11 10,21 1,2 1,3 2,6 3,10 6,15 10,17 -2,-3 -3,-6 -4,-9 0,-2 -1,-5 -1,-8 0,-2 1,-6 2,-10 1,-4 1,-7 1,-8 0,-2 0,-3 -2,-4 -1,-1 -3,-1 -6,-1l-1 0 0 -13c0,0 1,0 1,0 1,0 2,0 3,0 9,0 15,1 19,5 4,3 6,9 6,16 0,5 -1,11 -3,17 -2,7 -3,11 -3,13 0,1 0,3 1,4 1,1 1,1 3,2l0 13zm-33 -125c1,3 2,6 3,9 1,2 1,5 1,8 0,8 -2,15 -6,19 -5,5 -11,8 -18,8 -8,0 -14,-3 -19,-9 -5,-6 -7,-14 -7,-23 0,-12 3,-21 10,-28 7,-7 16,-10 29,-10 13,0 23,4 30,11 8,7 12,17 12,29 0,8 -2,15 -5,20 -3,4 -8,7 -13,7 -3,0 -6,-1 -8,-3 -2,-3 -3,-6 -3,-9 0,-4 1,-6 3,-9 2,-2 4,-3 7,-3 1,0 3,0 4,1 1,1 2,2 3,4 0,-1 1,-2 1,-3 0,-1 0,-2 0,-2 0,-6 -2,-10 -7,-13 -4,-3 -10,-4 -17,-4l0 0zm-36 10c0,3 2,5 4,6 3,2 6,3 10,3 4,0 8,-1 10,-3 3,-1 4,-3 4,-6 0,-3 -1,-5 -4,-6 -2,-2 -6,-3 -10,-3 -4,0 -8,1 -10,3 -3,1 -4,3 -4,6zm-158 116c0,0 -1,0 -1,0 -1,0 -1,0 -2,0 -6,0 -11,-1 -15,-4 -4,-2 -9,-6 -13,-11 -2,-2 -4,-6 -7,-10 -2,-5 -5,-9 -6,-11 -1,-1 -3,-3 -5,-3 -2,-1 -4,-2 -6,-2 -3,0 -6,1 -8,4 -2,2 -2,5 -2,9 0,3 0,5 1,7 1,2 2,4 4,6l0 -1c0,-3 0,-5 2,-7 1,-1 4,-2 6,-2 4,0 7,1 9,3 2,2 3,5 3,9 0,4 -1,7 -3,10 -3,2 -6,3 -10,3 -8,0 -14,-3 -19,-10 -5,-6 -7,-14 -7,-24 0,-10 2,-18 7,-24 5,-7 11,-10 19,-10 6,0 11,2 15,6 4,4 8,12 11,22 0,1 0,3 1,5 3,10 6,16 10,17 -1,-3 -3,-5 -3,-8 -1,-3 -1,-5 -1,-8 0,-3 0,-6 1,-10 1,-4 2,-7 2,-9 0,-1 -1,-3 -3,-3 -1,-1 -3,-2 -6,-2l-1 0 0 -13c0,0 1,0 2,0 0,0 1,0 2,0 9,0 15,2 19,5 4,4 6,9 6,17 0,5 -1,10 -3,17 -2,6 -3,10 -3,12 0,2 1,3 1,4 1,1 2,2 3,2l0 14zm-44 -109c-2,-3 -3,-6 -4,-8 0,-3 -1,-6 -1,-9 0,-8 3,-14 7,-19 5,-5 11,-7 18,-7 8,0 15,2 19,8 5,6 7,13 7,23 0,12 -3,22 -10,28 -7,7 -16,10 -28,10 -13,0 -24,-4 -32,-11 -7,-7 -11,-17 -11,-29 0,-8 2,-14 5,-19 3,-5 7,-8 13,-8 3,0 6,1 7,4 2,2 3,5 3,8 0,4 0,7 -2,9 -2,2 -4,3 -7,3 -2,0 -3,0 -4,-1 -1,-1 -3,-2 -3,-3 -1,0 -1,1 -1,2 0,1 0,2 0,3 0,5 2,9 6,12 5,3 10,4 18,4l0 0zm35 -10c0,-2 -1,-4 -3,-6 -3,-2 -6,-2 -10,-2 -5,0 -8,0 -11,2 -2,2 -3,4 -3,6 0,3 1,5 3,7 3,1 6,2 11,2 4,0 7,-1 10,-2 2,-2 3,-4 3,-7zm-218 118c0,0 -1,0 -1,1 -1,0 -1,0 -2,0 -5,0 -10,-2 -15,-4 -4,-2 -8,-6 -13,-11 -1,-3 -4,-6 -6,-11 -3,-4 -5,-8 -7,-10 -1,-1 -3,-3 -5,-4 -2,-1 -4,-1 -6,-1 -3,0 -6,1 -7,3 -2,3 -3,6 -3,10 0,3 0,5 1,7 1,2 2,4 4,6l0 -1c0,-3 1,-5 2,-7 2,-2 4,-2 7,-2 3,0 6,1 8,3 3,2 4,5 4,9 0,4 -2,7 -4,9 -3,3 -6,4 -10,4 -7,0 -14,-3 -19,-10 -4,-6 -7,-14 -7,-24 0,-10 3,-18 7,-25 5,-6 11,-9 19,-9 6,0 12,2 15,6 4,4 8,12 11,22 0,1 1,3 1,5 3,10 6,16 10,17 -1,-3 -2,-6 -3,-8 -1,-3 -1,-6 -1,-8 0,-3 0,-6 1,-11 1,-4 2,-6 2,-8 0,-1 -1,-3 -2,-4 -2,-1 -4,-1 -7,-1l-1 0 0 -13c1,0 1,0 2,0 0,0 1,0 3,0 8,0 15,2 18,5 4,4 6,9 6,17 0,4 -1,10 -3,16 -2,7 -3,11 -3,13 0,2 1,3 1,4 1,1 2,2 3,2l0 13zm-34 -110l-11 0c0,-4 -1,-8 -3,-10 -1,-2 -4,-3 -7,-3 -3,0 -6,1 -9,4 -2,2 -3,6 -3,10 0,3 0,5 1,6 1,2 2,4 3,5 0,-3 1,-4 3,-6 1,-1 3,-2 6,-2 3,0 5,1 7,3 2,2 3,5 3,9 0,3 -1,6 -4,8 -2,3 -5,4 -8,4 -7,0 -13,-3 -17,-10 -4,-6 -6,-15 -6,-26 0,-9 2,-17 6,-22 3,-6 9,-8 15,-8 4,0 8,1 11,3 2,3 4,6 6,11 2,-6 4,-10 8,-13 3,-3 7,-4 12,-4 7,0 13,3 17,9 4,6 6,14 6,25 0,12 -1,21 -5,27 -4,7 -9,10 -16,10 -4,0 -7,-2 -10,-4 -2,-3 -4,-6 -4,-10 0,-4 1,-7 3,-9 2,-2 5,-3 8,-3 3,0 5,0 7,2 1,2 2,4 3,8 1,-2 1,-4 2,-6 0,-2 1,-4 1,-7 0,-5 -1,-8 -4,-11 -2,-3 -5,-4 -9,-4 -4,0 -7,1 -9,4 -2,2 -3,6 -3,10zm-193 112c0,0 0,0 -1,0 -1,0 -1,0 -1,0 -6,0 -11,-1 -16,-3 -4,-3 -8,-7 -12,-12 -2,-2 -4,-6 -7,-10 -3,-5 -5,-8 -7,-10 -1,-2 -3,-3 -4,-4 -2,-1 -4,-2 -6,-2 -4,0 -6,2 -8,4 -2,2 -3,6 -3,10 0,2 0,5 1,7 1,2 2,4 4,5l0 0c0,-3 1,-6 2,-7 2,-2 4,-3 7,-3 4,0 7,1 9,3 2,3 3,6 3,10 0,3 -1,7 -4,9 -2,2 -6,3 -10,3 -7,0 -13,-3 -18,-9 -5,-7 -8,-15 -8,-25 0,-10 3,-18 8,-24 4,-7 11,-10 18,-10 7,0 12,2 16,7 4,4 7,11 10,21 0,1 1,3 2,5 2,11 6,16 9,17 -1,-2 -2,-5 -3,-8 -1,-2 -1,-5 -1,-8 0,-3 1,-6 2,-10 1,-4 1,-7 1,-8 0,-2 -1,-3 -2,-4 -1,-1 -4,-2 -7,-2l-1 0 0 -12c1,0 1,0 2,-1 1,0 2,0 3,0 8,0 15,2 19,6 4,3 6,9 6,16 0,5 -1,10 -3,17 -2,6 -3,11 -3,12 0,2 0,3 1,4 0,1 1,2 2,3l0 13zm-38 -127c-10,0 -17,0 -22,2 -4,2 -6,4 -6,8 0,4 2,6 6,8 5,2 12,2 22,2 10,0 17,0 22,-2 4,-2 6,-4 6,-8 0,-4 -2,-6 -6,-8 -5,-2 -12,-2 -22,-2zm0 47c-12,0 -22,-3 -30,-10 -7,-7 -11,-16 -11,-27 0,-11 4,-20 12,-27 7,-7 17,-11 29,-11 12,0 22,4 29,11 8,7 12,16 12,27 0,11 -4,20 -12,27 -7,7 -17,10 -29,10zm-243 75l-12 0c0,-5 -1,-10 -3,-13 -1,-3 -4,-5 -6,-6l0 -20 60 0c2,0 4,0 4,-1 1,-1 1,-4 1,-8l0 -2 11 0 0 50 -11 0 0 -4c0,-4 0,-6 -1,-8 0,-1 -2,-1 -6,-1l0 0 -37 0 0 13zm55 -92c0,1 -1,1 -1,1 -1,0 -2,0 -3,0 -6,0 -12,-1 -17,-3 -5,-2 -10,-5 -14,-8 -3,-2 -6,-6 -11,-11 -5,-6 -9,-10 -12,-13 1,2 1,4 2,6 0,2 1,4 1,6 0,2 -1,6 -2,9 0,4 -1,6 -1,7 0,3 1,6 3,7 2,2 5,2 10,2 1,0 2,0 3,0 0,0 1,0 1,0l0 15 -35 0 0 -15 7 0c-3,-1 -5,-4 -7,-6 -1,-3 -2,-6 -2,-10 0,-4 1,-9 3,-14 2,-5 3,-9 3,-10 0,-1 0,-2 -1,-3 0,-1 -1,-1 -3,-1l0 0 0 -11c0,0 0,0 0,0 1,0 1,0 2,0 5,0 13,4 25,11 1,1 3,2 3,2 9,5 16,9 23,11 6,1 13,2 21,2l2 0 0 26zm-283 91l-11 0c-1,-5 -2,-9 -3,-12 -2,-3 -4,-5 -7,-6l0 -20 61 0c2,0 3,0 4,-2 0,-1 1,-3 1,-7l0 -3 11 0 0 50 -11 0 0 -3c0,-4 -1,-7 -1,-8 -1,-1 -3,-2 -6,-2l-1 0 -37 0 0 13zm34 -131l6 0c2,0 3,0 4,-1 0,-2 1,-4 1,-8l0 -3 11 0 0 49 -11 0 0 -3c0,-4 -1,-7 -1,-8 -1,-1 -3,-2 -7,-2l0 0 -3 0 0 38 -14 0 -41 -38 0 -24 44 0 0 -12 11 0 0 12zm-11 48l0 -24 -27 0 27 24zm-250 78l-11 0c0,-5 -1,-9 -3,-12 -2,-3 -4,-5 -7,-7l0 -19 61 0c2,0 3,-1 4,-2 1,-1 1,-4 1,-7l0 -3 11 0 0 50 -11 0 0 -4c0,-4 0,-6 -1,-7 -1,-2 -3,-2 -6,-2l-1 0 -37 0 0 13zm0 -82l-11 0c0,-5 -1,-9 -3,-12 -2,-3 -4,-5 -7,-6l0 -20 61 0c2,0 3,-1 4,-2 1,-1 1,-4 1,-7l0 -3 11 0 0 50 -11 0 0 -3c0,-4 0,-7 -1,-8 -1,-2 -3,-2 -6,-2l-1 0 -37 0 0 13zm-209 38c-2,4 -5,7 -8,9 -2,1 -6,2 -9,2 -7,0 -13,-3 -17,-9 -5,-6 -7,-14 -7,-25 0,-10 2,-17 5,-23 4,-6 9,-8 15,-8 3,0 6,1 9,3 2,2 4,5 5,9 3,-6 6,-10 10,-13 3,-3 7,-4 13,-4 7,0 14,3 18,10 4,7 6,16 6,28 0,12 -1,20 -5,27 -4,6 -9,9 -17,9 -4,0 -7,-1 -10,-4 -3,-2 -6,-6 -8,-11zm7 -12c1,3 3,5 5,7 2,1 4,2 6,2 3,0 6,-2 9,-5 2,-3 3,-8 3,-13 0,-5 -1,-8 -2,-11 -1,-2 -3,-3 -6,-3 -2,0 -4,1 -6,2 -1,2 -3,5 -5,9l-4 12zm-19 -18c-1,-2 -3,-4 -4,-5 -1,-1 -3,-2 -5,-2 -2,0 -4,2 -6,4 -2,2 -3,5 -3,9 0,4 1,7 2,9 2,2 3,3 5,3 2,0 3,0 5,-2 1,-1 2,-4 4,-9l2 -7zm-215 37l-40 -2c1,-8 1,-13 2,-18 0,-4 0,-8 0,-11 0,-7 -1,-15 -2,-23 -1,-2 -1,-3 -1,-3 0,-1 0,-1 1,-2 1,0 1,0 2,0 4,0 8,2 11,8 3,6 5,13 5,21 0,2 0,4 0,6 0,3 -1,6 -1,9l10 1c-1,-2 -2,-5 -3,-8 -1,-2 -1,-5 -1,-9 0,-10 3,-18 8,-24 5,-6 12,-9 21,-9 9,0 16,4 21,11 6,6 8,15 8,27 0,9 -2,17 -6,23 -4,5 -9,8 -16,8 -4,0 -7,-1 -10,-3 -2,-3 -3,-6 -3,-10 0,-4 1,-7 3,-9 2,-2 4,-3 7,-3 3,0 6,0 7,2 2,1 3,3 3,6 1,-1 2,-3 3,-4 1,-2 1,-4 1,-5 0,-5 -2,-9 -5,-12 -3,-2 -8,-4 -13,-4 -5,0 -9,1 -12,4 -3,2 -4,5 -4,9 0,2 0,4 1,6 0,1 1,3 3,4l0 14zm-188 7c0,0 -1,0 -1,0 -1,0 -2,0 -2,0 -6,0 -11,-1 -15,-4 -4,-2 -9,-6 -13,-11 -2,-2 -4,-6 -7,-10 -3,-5 -5,-8 -6,-11 -2,-1 -3,-2 -5,-3 -2,-1 -4,-2 -6,-2 -3,0 -6,1 -8,4 -2,2 -3,5 -3,9 0,3 1,5 2,7 1,3 2,4 3,6l0 -1c0,-3 1,-5 3,-7 1,-1 4,-2 6,-2 4,0 7,1 9,3 2,2 3,5 3,9 0,4 -1,7 -3,10 -3,2 -6,3 -10,3 -8,0 -14,-3 -19,-9 -5,-7 -7,-15 -7,-25 0,-10 2,-18 7,-24 5,-7 11,-10 19,-10 6,0 11,2 15,6 4,5 7,12 11,22 0,1 0,3 1,5 3,10 6,16 10,17 -2,-3 -3,-5 -3,-8 -1,-3 -2,-5 -2,-8 0,-3 1,-6 2,-10 1,-4 2,-7 2,-8 0,-2 -1,-4 -3,-4 -1,-1 -3,-2 -6,-2l-1 0 0 -13c0,0 1,0 2,0 0,0 1,0 2,0 9,0 15,2 19,5 4,4 6,10 6,17 0,5 -1,10 -3,17 -2,6 -3,10 -3,12 0,2 0,3 1,4 1,1 2,2 3,2l0 14zm2460 293l-11 0c0,-5 -1,-8 -3,-10 -1,-2 -3,-3 -7,-3 -3,0 -6,1 -9,3 -2,3 -3,6 -3,11 0,2 0,4 1,6 1,2 2,3 4,4 0,-2 0,-4 2,-5 1,-2 3,-2 6,-2 3,0 6,1 7,3 2,2 3,4 3,8 0,4 -1,7 -3,9 -3,2 -5,3 -9,3 -7,0 -12,-3 -17,-9 -4,-7 -6,-15 -6,-26 0,-10 2,-17 6,-23 4,-5 9,-8 15,-8 4,0 8,1 11,4 2,2 5,6 6,10 2,-5 4,-10 8,-12 3,-3 7,-5 12,-5 7,0 13,3 17,10 4,6 6,14 6,25 0,12 -1,21 -5,27 -3,6 -9,9 -15,9 -4,0 -8,-1 -10,-4 -3,-2 -4,-6 -4,-10 0,-3 1,-6 3,-8 2,-3 4,-4 7,-4 3,0 6,1 7,3 2,1 3,4 3,7 1,-1 2,-3 2,-5 1,-2 1,-5 1,-7 0,-5 -1,-9 -4,-11 -2,-3 -5,-4 -9,-4 -4,0 -7,1 -9,3 -2,3 -3,6 -3,11zm12 -114l6 0c2,0 3,0 4,-1 1,-1 1,-4 1,-7l0 -4 11 0 0 49 -11 0 0 -3c0,-4 0,-7 -1,-8 -1,-1 -3,-2 -6,-2l-1 0 -3 0 0 38 -13 0 -42 -38 0 -24 45 0 0 -12 10 0 0 12zm-10 49l0 -25 -27 0 27 25zm-229 59l-11 0c0,-4 -1,-8 -2,-10 -2,-2 -4,-3 -7,-3 -4,0 -7,1 -9,4 -3,2 -4,6 -4,10 0,3 1,5 1,6 1,2 2,4 4,5 0,-2 1,-4 2,-6 2,-1 4,-2 6,-2 3,0 6,1 7,3 2,2 3,5 3,9 0,3 -1,6 -3,8 -2,3 -5,4 -9,4 -7,0 -12,-3 -16,-10 -4,-6 -7,-15 -7,-26 0,-9 2,-17 6,-22 4,-6 9,-8 16,-8 4,0 7,1 10,3 3,3 5,6 6,11 2,-6 5,-10 8,-13 3,-3 7,-4 12,-4 8,0 13,3 17,9 5,6 7,14 7,25 0,12 -2,21 -6,27 -3,7 -8,10 -15,10 -4,0 -8,-1 -10,-4 -3,-3 -4,-6 -4,-10 0,-4 1,-7 3,-9 2,-2 4,-3 8,-3 3,0 5,1 6,2 2,2 3,4 3,8 1,-2 2,-4 2,-6 1,-2 1,-4 1,-7 0,-5 -1,-8 -3,-11 -3,-3 -6,-4 -10,-4 -4,0 -7,1 -9,4 -2,2 -3,6 -3,10zm-21 -64l-12 0c0,-5 -1,-9 -3,-12 -1,-3 -3,-5 -6,-6l0 -20 60 0c2,0 4,-1 4,-2 1,-1 1,-3 1,-7l0 -3 12 0 0 50 -12 0 0 -3c0,-4 0,-7 -1,-8 0,-1 -2,-2 -6,-2l0 0 -37 0 0 13zm-171 99c-1,0 -1,0 -2,0 0,0 -1,0 -1,0 -6,0 -11,-1 -15,-4 -5,-2 -9,-6 -13,-11 -2,-2 -4,-6 -7,-10 -3,-5 -5,-8 -6,-11 -2,-1 -3,-2 -5,-3 -2,-1 -4,-2 -6,-2 -3,0 -6,1 -8,4 -2,2 -3,5 -3,9 0,3 1,5 2,7 0,3 2,4 3,6l0 -1c0,-3 1,-5 3,-7 1,-1 3,-2 6,-2 4,0 7,1 9,3 2,2 3,5 3,9 0,4 -1,7 -3,10 -3,2 -6,3 -10,3 -8,0 -14,-3 -19,-9 -5,-7 -7,-15 -7,-25 0,-10 2,-18 7,-24 5,-7 11,-10 19,-10 6,0 11,2 15,6 4,5 7,12 10,22 1,1 1,3 2,5 3,10 6,16 10,17 -2,-3 -3,-5 -4,-8 0,-3 -1,-5 -1,-8 0,-3 1,-6 2,-10 1,-4 1,-7 1,-8 0,-2 0,-4 -2,-4 -1,-1 -3,-2 -6,-2l-1 0 0 -13c0,0 1,0 1,0 1,0 2,0 3,0 9,0 15,2 19,5 4,4 6,9 6,17 0,5 -1,10 -3,17 -2,6 -3,10 -3,12 0,2 0,3 1,4 1,1 1,2 3,2l0 14zm-38 -95c-3,4 -5,7 -8,8 -3,2 -6,3 -10,3 -7,0 -13,-3 -17,-9 -4,-6 -6,-14 -6,-25 0,-10 1,-17 5,-23 3,-6 8,-8 14,-8 4,0 7,1 9,3 2,2 4,5 6,9 2,-6 5,-11 9,-13 4,-3 8,-4 13,-4 8,0 14,3 18,10 5,7 7,16 7,28 0,12 -2,20 -6,26 -4,7 -9,10 -16,10 -4,0 -8,-2 -11,-4 -3,-2 -5,-6 -7,-11zm6 -12c2,3 3,5 5,7 2,1 4,2 6,2 4,0 7,-2 9,-5 2,-3 3,-8 3,-13 0,-5 0,-8 -2,-11 -1,-2 -3,-3 -6,-3 -2,0 -4,1 -5,2 -2,2 -4,5 -5,9l-5 12zm-19 -18c-1,-2 -2,-4 -4,-5 -1,-1 -3,-2 -5,-2 -2,0 -4,1 -6,4 -1,2 -2,5 -2,9 0,4 0,7 2,9 1,2 3,3 5,3 1,0 3,0 4,-2 1,-2 3,-5 4,-9l2 -7zm-176 123c0,0 0,0 -1,0 -1,0 -1,0 -1,0 -6,0 -11,-1 -16,-3 -4,-3 -8,-7 -12,-12 -2,-2 -4,-6 -7,-10 -3,-5 -5,-8 -7,-10 -1,-2 -3,-3 -4,-4 -2,-1 -4,-2 -6,-2 -4,0 -6,2 -8,4 -2,2 -3,5 -3,10 0,2 0,5 1,7 1,2 2,4 4,5l0 -1c0,-3 1,-5 2,-7 2,-1 4,-2 7,-2 4,0 7,1 9,3 2,3 3,6 3,9 0,4 -1,7 -4,10 -2,2 -6,3 -10,3 -7,0 -13,-3 -18,-9 -5,-7 -8,-15 -8,-25 0,-10 3,-18 8,-24 4,-7 11,-10 18,-10 7,0 12,2 16,7 4,4 7,11 10,21 0,1 1,3 2,5 2,10 6,16 9,17 -1,-2 -2,-5 -3,-8 -1,-2 -1,-5 -1,-8 0,-3 1,-6 2,-10 1,-4 1,-7 1,-8 0,-2 -1,-3 -2,-4 -1,-1 -4,-2 -7,-2l-1 0 0 -12c1,-1 1,-1 2,-1 1,0 2,0 3,0 8,0 15,2 19,6 4,3 6,9 6,16 0,5 -1,10 -3,17 -2,6 -3,11 -3,12 0,2 0,3 1,4 0,1 1,2 2,3l0 13zm-39 -87l-39 -2c0,-7 1,-13 1,-18 0,-4 0,-8 0,-10 0,-8 0,-16 -2,-24 0,-1 -1,-2 -1,-3 0,-1 1,-1 1,-2 1,0 2,0 3,0 3,0 7,3 10,9 4,6 5,13 5,21 0,1 0,3 0,5 0,3 0,6 -1,10l10 0c-1,-2 -2,-5 -3,-7 0,-3 -1,-6 -1,-9 0,-11 3,-19 8,-25 5,-5 12,-8 21,-8 9,0 16,3 21,10 6,7 9,16 9,27 0,10 -2,17 -6,23 -5,6 -10,9 -17,9 -4,0 -7,-2 -9,-4 -3,-3 -4,-6 -4,-10 0,-4 1,-7 3,-9 2,-2 5,-3 8,-3 3,0 5,0 6,2 2,1 3,3 4,7 1,-2 2,-4 2,-5 1,-2 1,-3 1,-5 0,-5 -1,-8 -5,-11 -3,-3 -7,-5 -13,-5 -5,0 -9,2 -12,4 -2,2 -4,5 -4,9 0,2 1,4 1,6 1,1 2,3 3,5l0 13zm-188 88c0,0 -1,0 -1,0 -1,0 -1,0 -2,0 -5,0 -10,-1 -15,-3 -4,-3 -8,-7 -13,-12 -1,-2 -4,-6 -6,-10 -3,-5 -5,-8 -7,-10 -1,-2 -3,-3 -5,-4 -2,-1 -4,-2 -6,-2 -3,0 -6,2 -7,4 -2,2 -3,5 -3,10 0,2 0,5 1,7 1,2 2,4 4,5l0 -1c0,-3 1,-5 2,-6 2,-2 4,-3 7,-3 3,0 6,1 8,3 3,3 4,6 4,9 0,4 -2,8 -4,10 -3,2 -6,3 -10,3 -7,0 -14,-3 -19,-9 -4,-7 -7,-15 -7,-25 0,-10 3,-18 7,-24 5,-7 11,-10 19,-10 6,0 12,2 15,7 4,4 8,11 11,21 0,1 1,3 1,5 3,10 6,16 10,17 -1,-2 -2,-5 -3,-8 -1,-2 -1,-5 -1,-8 0,-3 0,-6 1,-10 1,-4 2,-7 2,-8 0,-2 -1,-3 -2,-4 -2,-1 -4,-2 -7,-2l-1 0 0 -12c1,-1 1,-1 2,-1 0,0 1,0 3,0 8,0 15,2 18,6 4,3 6,9 6,16 0,5 -1,10 -3,17 -2,6 -3,11 -3,12 0,2 1,3 1,4 1,1 2,2 3,3l0 13zm0 -82c0,0 -1,0 -1,0 -1,0 -1,0 -2,0 -5,0 -10,-1 -15,-3 -4,-3 -8,-6 -13,-12 -1,-2 -4,-5 -6,-10 -3,-5 -5,-8 -7,-10 -1,-2 -3,-3 -5,-4 -2,-1 -4,-2 -6,-2 -3,0 -6,2 -7,4 -2,2 -3,6 -3,10 0,2 0,5 1,7 1,2 2,4 4,5l0 0c0,-3 1,-6 2,-7 2,-2 4,-3 7,-3 3,0 6,1 8,4 3,2 4,5 4,9 0,4 -2,7 -4,9 -3,2 -6,3 -10,3 -7,0 -14,-3 -19,-9 -4,-6 -7,-15 -7,-25 0,-10 3,-18 7,-24 5,-6 11,-10 19,-10 6,0 12,3 15,7 4,4 8,11 11,21 0,2 1,3 1,6 3,10 6,15 10,17 -1,-3 -2,-6 -3,-9 -1,-2 -1,-5 -1,-8 0,-2 0,-6 1,-10 1,-4 2,-7 2,-8 0,-2 -1,-3 -2,-4 -2,-1 -4,-1 -7,-1l-1 0 0 -13c1,0 1,0 2,0 0,0 1,0 3,0 8,0 15,1 18,5 4,3 6,9 6,16 0,5 -1,11 -3,17 -2,7 -3,11 -3,13 0,1 1,3 1,4 1,1 2,1 3,2l0 13zm-282 76l-12 0c0,-5 -1,-9 -3,-12 -1,-3 -4,-5 -7,-6l0 -20 61 0c2,0 4,-1 4,-2 1,-1 1,-3 1,-7l0 -3 11 0 0 50 -11 0 0 -3c0,-4 0,-7 -1,-8 0,-2 -3,-2 -6,-2l0 0 -37 0 0 13zm22 -115c2,3 3,6 4,9 1,3 1,6 1,9 0,8 -2,14 -7,19 -4,5 -10,7 -17,7 -8,0 -15,-3 -20,-8 -4,-6 -7,-14 -7,-24 0,-11 4,-21 11,-27 7,-7 16,-10 28,-10 13,0 24,3 31,11 8,7 12,17 12,29 0,8 -2,14 -5,19 -4,5 -8,8 -13,8 -4,0 -6,-2 -8,-4 -2,-2 -3,-5 -3,-9 0,-3 1,-6 3,-8 1,-2 4,-3 6,-3 2,0 3,0 5,1 1,1 2,2 3,3 0,-1 0,-2 0,-2 1,-1 1,-2 1,-3 0,-5 -3,-9 -7,-12 -4,-3 -10,-5 -17,-5l-1 0zm-35 11c0,2 1,4 4,6 2,1 6,2 10,2 4,0 7,-1 10,-2 2,-2 4,-4 4,-6 0,-3 -2,-5 -4,-7 -3,-1 -6,-2 -10,-2 -4,0 -8,1 -10,2 -3,2 -4,4 -4,7zm-214 105l-11 0c-1,-6 -2,-10 -3,-13 -2,-3 -4,-5 -7,-6l0 -20 60 0c2,0 4,0 5,-1 0,-1 1,-4 1,-8l0 -3 11 0 0 51 -11 0 0 -4c0,-4 -1,-6 -1,-8 -1,-1 -3,-2 -7,-2l0 0 -37 0 0 14zm12 -98c-2,-3 -3,-6 -4,-9 -1,-3 -1,-6 -1,-9 0,-7 2,-14 7,-19 4,-4 10,-7 18,-7 8,0 14,3 19,9 5,5 7,13 7,23 0,12 -4,21 -10,28 -7,6 -16,10 -28,10 -14,0 -24,-4 -32,-11 -8,-7 -11,-17 -11,-29 0,-8 1,-15 5,-20 3,-5 7,-7 12,-7 4,0 6,1 8,3 2,2 3,5 3,9 0,3 -1,6 -3,8 -1,3 -4,4 -6,4 -2,0 -3,-1 -4,-1 -2,-1 -3,-2 -4,-4 0,1 0,2 0,3 0,1 -1,2 -1,2 0,5 3,9 7,12 4,3 10,5 17,5l1 0zm35 -10c0,-3 -1,-5 -4,-6 -2,-2 -5,-3 -10,-3 -4,0 -7,1 -10,3 -2,1 -4,3 -4,6 0,3 2,5 4,6 3,2 6,3 10,3 5,0 8,-1 10,-3 3,-1 4,-3 4,-6zm-274 107l-11 0c-1,-5 -2,-9 -3,-12 -2,-3 -4,-5 -7,-6l0 -20 61 0c2,0 3,0 4,-2 0,-1 1,-3 1,-7l0 -3 11 0 0 50 -11 0 0 -3c0,-4 -1,-7 -1,-8 -1,-1 -3,-2 -6,-2l-1 0 -37 0 0 13zm21 -99l-10 0c-1,-5 -1,-8 -3,-10 -2,-2 -4,-3 -7,-3 -4,0 -7,1 -9,3 -2,3 -3,6 -3,11 0,2 0,4 1,6 0,2 2,3 3,4 0,-2 1,-4 2,-5 2,-2 4,-2 6,-2 4,0 6,1 8,3 2,2 2,4 2,8 0,4 -1,7 -3,9 -2,2 -5,3 -8,3 -7,0 -13,-3 -17,-9 -4,-7 -6,-15 -6,-26 0,-10 2,-17 5,-23 4,-5 9,-8 16,-8 4,0 7,2 10,4 3,2 5,6 7,10 1,-5 4,-10 7,-12 4,-3 8,-5 13,-5 7,0 13,3 17,10 4,6 6,14 6,25 0,12 -2,21 -5,27 -4,6 -9,9 -16,9 -4,0 -7,-1 -10,-4 -2,-2 -4,-6 -4,-10 0,-3 1,-6 3,-8 2,-3 5,-4 8,-4 3,0 5,1 7,3 1,1 2,4 3,7 1,-1 1,-3 2,-5 0,-2 0,-5 0,-7 0,-5 -1,-9 -3,-11 -2,-3 -5,-4 -10,-4 -4,0 -7,1 -9,3 -2,3 -3,6 -3,11zm-248 101l-11 0c0,-5 -1,-9 -3,-12 -2,-3 -4,-5 -7,-6l0 -20 61 0c2,0 3,-1 4,-2 1,-1 1,-4 1,-7l0 -3 11 0 0 50 -11 0 0 -4c0,-4 0,-6 -1,-7 -1,-2 -3,-2 -6,-2l-1 0 -37 0 0 13zm18 -117c-10,0 -18,1 -22,3 -4,1 -7,4 -7,7 0,4 3,7 7,8 4,2 12,3 22,3 10,0 17,-1 21,-2 5,-2 7,-5 7,-8 0,-4 -2,-7 -7,-8 -4,-2 -11,-3 -21,-3zm0 48c-13,0 -22,-3 -30,-10 -7,-7 -11,-16 -11,-28 0,-11 4,-20 11,-27 8,-7 18,-10 30,-10 12,0 22,3 29,10 8,7 11,16 11,28 0,11 -3,20 -11,27 -7,7 -17,10 -29,10zm-188 15c0,0 -1,0 -1,0 -1,0 -2,0 -3,0 -6,0 -12,-1 -17,-3 -5,-2 -10,-4 -15,-8 -2,-2 -6,-6 -11,-11 -4,-6 -8,-10 -11,-12 0,1 1,3 1,5 1,2 1,4 1,6 0,3 0,6 -1,9 -1,4 -1,6 -1,7 0,4 1,6 3,7 2,2 5,3 10,3 1,0 2,0 2,0 1,-1 1,-1 2,-1l0 15 -36 0 0 -15 8 0c-3,-1 -5,-4 -7,-6 -2,-3 -2,-6 -2,-10 0,-4 1,-9 3,-14 2,-5 3,-8 3,-10 0,-1 0,-2 -1,-3 -1,0 -2,-1 -3,-1l-1 0 0 -11c0,0 1,0 1,0 0,0 1,0 2,0 5,0 13,4 25,11 1,1 2,2 3,2 9,5 16,9 22,11 7,2 14,3 21,3l3 0 0 26zm-249 -43l5 0c2,0 4,-1 4,-2 1,-1 1,-3 1,-7l0 -3 12 0 0 49 -12 0 0 -3c0,-4 0,-7 -1,-8 0,-2 -2,-2 -6,-2l0 0 -3 0 0 38 -14 0 -41 -38 0 -24 44 0 0 -12 11 0 0 12zm-11 48l0 -24 -27 0 27 24zm-250 2l-11 0c-1,-5 -2,-9 -3,-12 -2,-3 -4,-5 -7,-6l0 -20 61 0c2,0 3,-1 4,-2 0,-1 1,-4 1,-7l0 -3 11 0 0 50 -11 0 0 -3c0,-4 -1,-7 -1,-8 -1,-2 -3,-2 -7,-2l0 0 -37 0 0 13zm1998 231l0 -13c5,0 9,-1 11,-3 3,-2 4,-5 4,-8 0,-5 -1,-8 -4,-11 -3,-2 -7,-4 -12,-4 -3,0 -6,1 -8,1 -2,1 -4,3 -5,4 3,0 5,1 7,3 2,2 2,4 2,7 0,4 -1,7 -3,9 -2,2 -6,3 -10,3 -5,0 -8,-1 -11,-4 -2,-2 -4,-6 -4,-10 0,-8 4,-15 12,-19 7,-5 17,-8 30,-8 11,0 20,2 27,7 6,4 9,10 9,18 0,5 -1,9 -4,12 -3,4 -7,6 -12,8 6,2 11,5 15,9 3,4 5,9 5,14 0,9 -4,16 -11,21 -7,5 -17,7 -30,7 -14,0 -25,-2 -32,-6 -7,-4 -11,-11 -11,-19 0,-4 1,-8 5,-11 3,-4 7,-5 12,-5 4,0 7,1 10,3 2,3 4,6 4,10 0,3 -1,6 -3,8 -2,1 -5,2 -9,3 2,1 4,2 6,2 3,1 5,1 8,1 6,0 11,-1 14,-4 3,-2 5,-6 5,-11 0,-5 -2,-8 -5,-11 -3,-2 -7,-3 -12,-3zm189 -25l0 -14c6,0 11,-1 14,-3 4,-2 6,-5 7,-8l24 0 0 71c0,3 0,4 2,5 1,1 4,1 8,1l4 0 0 13 -59 0 0 -13 4 0c4,0 8,0 9,-1 1,-1 2,-3 2,-7l0 -1 0 -43 -15 0zm88 66c0,-1 0,-1 0,-2 0,-1 0,-1 0,-2 0,-7 1,-13 4,-18 3,-5 7,-10 14,-15 2,-2 6,-4 12,-8 5,-3 9,-6 12,-8 2,-1 3,-3 4,-5 1,-2 2,-5 2,-7 0,-4 -1,-7 -4,-9 -3,-3 -7,-4 -12,-4 -3,0 -6,1 -8,2 -2,1 -5,2 -6,4l0 0c4,0 7,1 8,3 2,2 3,4 3,8 0,4 -1,8 -4,10 -2,3 -6,4 -10,4 -5,0 -9,-2 -11,-4 -3,-3 -4,-7 -4,-12 0,-9 3,-16 11,-22 7,-6 17,-9 29,-9 12,0 21,3 29,9 7,5 11,13 11,22 0,7 -3,13 -8,18 -4,5 -13,9 -25,12 -2,1 -4,1 -6,2 -12,3 -19,7 -20,12 3,-2 6,-3 9,-4 3,-1 7,-2 10,-2 3,0 7,1 12,2 5,1 8,2 10,2 2,0 3,-1 4,-2 1,-2 2,-5 2,-8l0 -1 15 0c0,0 0,1 0,2 0,0 0,1 0,3 0,10 -2,17 -6,22 -4,5 -11,7 -20,7 -5,0 -11,-1 -19,-3 -8,-3 -13,-4 -15,-4 -2,0 -4,0 -5,1 -1,1 -2,2 -2,4l-16 0zm-189 -70c1,-2 3,-3 5,-4 2,-1 4,-1 6,-1 3,0 5,1 7,2 2,2 3,5 3,8 0,3 -1,5 -2,6 -2,2 -4,3 -6,3 -2,0 -4,-1 -5,-2 -1,-1 -2,-3 -2,-5 0,-1 0,-2 1,-3 1,-1 1,-2 3,-2 -1,-1 -1,-1 -1,-1 -1,0 -1,0 -1,0 -2,0 -4,1 -6,4 -1,2 -2,5 -2,9l0 12c0,1 1,3 1,3 1,1 2,1 3,1l3 0 0 8 -30 0 0 -8 2 0c2,0 3,0 3,-1 1,0 1,-2 1,-3l0 -18c0,-2 0,-3 -1,-3 0,-1 -1,-1 -3,-1l-2 0 0 -8 23 0 0 4zm57 -9c0,-2 0,-3 -1,-4 -1,0 -2,-1 -4,-1 0,0 0,0 -1,0 0,0 -1,0 -1,0l0 -7 24 0 0 47c0,1 1,3 1,3 1,1 2,1 3,1l2 0 0 8 -22 0 0 -6c-2,2 -4,4 -6,5 -2,1 -5,2 -7,2 -6,0 -10,-2 -13,-6 -3,-3 -5,-9 -5,-16 0,-7 2,-12 5,-16 3,-4 7,-6 12,-6 3,0 5,0 7,1 2,1 4,3 6,5l0 -10zm0 26c0,-5 0,-8 -1,-10 -1,-2 -3,-3 -5,-3 -2,0 -3,1 -4,3 -1,2 -1,6 -1,10 0,4 0,8 1,10 1,2 2,3 4,3 2,0 4,-1 5,-3 1,-2 1,-6 1,-10zm-1092 53c0,-1 0,-1 0,-2 0,-1 0,-1 0,-2 0,-7 2,-13 4,-18 3,-5 8,-10 14,-15 2,-2 6,-4 12,-8 5,-3 9,-6 12,-8 2,-1 3,-3 4,-5 2,-2 2,-5 2,-7 0,-4 -1,-7 -4,-9 -3,-3 -7,-4 -12,-4 -3,0 -5,1 -8,2 -2,1 -4,2 -6,4l0 0c4,0 7,1 9,3 2,2 3,4 3,8 0,4 -2,8 -4,10 -3,3 -7,4 -11,4 -5,0 -8,-2 -11,-4 -3,-3 -4,-7 -4,-12 0,-9 4,-16 11,-22 8,-6 17,-9 29,-9 12,0 21,3 29,9 7,5 11,13 11,22 0,7 -2,13 -7,18 -5,5 -14,9 -26,12 -1,1 -3,1 -6,2 -12,3 -19,7 -20,12 3,-2 6,-3 10,-4 3,-1 6,-2 9,-2 3,0 7,1 12,2 5,1 8,2 10,2 2,0 3,-1 5,-2 1,-2 1,-5 1,-8l0 -1 15 0c0,0 0,1 0,2 0,0 0,1 0,3 0,10 -2,17 -6,22 -4,5 -10,7 -19,7 -6,0 -12,-1 -20,-3 -8,-3 -13,-4 -15,-4 -2,0 -3,0 -4,1 -2,1 -3,2 -3,4l-16 0zm237 -66l0 -14c6,0 10,-1 14,-3 3,-2 6,-5 7,-8l24 0 0 71c0,3 0,4 2,5 1,1 4,1 8,1l4 0 0 13 -59 0 0 -13 4 0c4,0 7,0 9,-1 1,-1 2,-3 2,-7l0 -1 0 -43 -15 0zm88 66c0,-1 0,-1 0,-2 0,-1 0,-1 0,-2 0,-7 1,-13 4,-18 3,-5 7,-10 14,-15 2,-2 6,-4 12,-8 5,-3 9,-6 12,-8 1,-1 3,-3 4,-5 1,-2 2,-5 2,-7 0,-4 -2,-7 -4,-9 -3,-3 -7,-4 -12,-4 -3,0 -6,1 -8,2 -3,1 -5,2 -7,4l1 0c4,0 6,1 8,3 2,2 3,4 3,8 0,4 -1,8 -4,10 -2,3 -6,4 -10,4 -5,0 -9,-2 -11,-4 -3,-3 -4,-7 -4,-12 0,-9 3,-16 11,-22 7,-6 17,-9 29,-9 11,0 21,3 29,9 7,5 11,13 11,22 0,7 -3,13 -8,18 -5,5 -13,9 -25,12 -2,1 -4,1 -6,2 -12,3 -19,7 -20,12 3,-2 6,-3 9,-4 3,-1 7,-2 10,-2 3,0 7,1 12,2 5,1 8,2 9,2 3,0 4,-1 5,-2 1,-2 2,-5 2,-8l0 -1 15 0c0,0 0,1 0,2 0,0 0,1 0,3 0,10 -2,17 -6,22 -4,5 -11,7 -20,7 -5,0 -12,-1 -19,-3 -8,-3 -13,-4 -15,-4 -2,0 -4,0 -5,1 -1,1 -2,2 -2,4l-16 0zm-171 -44c0,1 0,3 0,3 1,1 2,1 4,1l1 0 0 8 -27 0 0 -8 1 0c1,0 2,0 3,-1 0,0 0,-2 0,-3l0 -15c0,-3 0,-4 -1,-5 -1,-2 -3,-2 -4,-2 -2,0 -4,0 -5,2 -1,2 -2,4 -2,6l0 14c0,1 0,3 1,3 0,1 1,1 3,1l1 0 0 8 -28 0 0 -8 2 0c1,0 2,0 3,-1 1,0 1,-2 1,-3l0 -18c0,-2 0,-3 -1,-3 -1,-1 -2,-1 -3,-1l-2 0 0 -8 23 0 0 7c1,-3 4,-5 6,-6 3,-1 6,-2 9,-2 5,0 9,1 11,3 2,3 4,7 4,12l0 16zm41 -35c0,-2 -1,-3 -1,-4 -1,0 -2,-1 -4,-1 0,0 -1,0 -1,0 -1,0 -1,0 -1,0l0 -7 24 0 0 47c0,1 0,3 1,3 0,1 1,1 3,1l2 0 0 8 -22 0 0 -6c-2,2 -4,4 -7,5 -2,1 -4,2 -7,2 -6,0 -10,-2 -13,-6 -3,-3 -4,-9 -4,-16 0,-7 1,-12 4,-16 3,-4 7,-6 13,-6 2,0 5,0 7,1 2,1 4,3 6,5l0 -10zm0 26c0,-5 -1,-8 -2,-10 -1,-2 -2,-3 -4,-3 -2,0 -4,1 -4,3 -1,2 -2,6 -2,10 0,4 1,8 2,10 0,2 2,3 4,3 2,0 3,-1 4,-3 1,-2 2,-6 2,-10zm-1085 -13l0 -14c6,0 11,-1 14,-3 4,-2 6,-5 8,-8l23 0 0 71c0,3 1,4 2,5 1,1 4,1 9,1l3 0 0 13 -59 0 0 -13 4 0c5,0 8,0 9,-1 2,-1 3,-3 3,-7l0 -1 0 -43 -16 0zm197 0l0 -14c6,0 11,-1 14,-3 4,-2 6,-5 7,-8l24 0 0 71c0,3 1,4 2,5 1,1 4,1 9,1l3 0 0 13 -59 0 0 -13 4 0c5,0 8,0 9,-1 2,-1 2,-3 2,-7l0 -1 0 -43 -15 0zm88 66c0,-1 0,-1 0,-2 0,-1 0,-1 0,-2 0,-7 1,-13 4,-18 3,-5 7,-10 14,-15 2,-2 6,-4 12,-8 5,-3 9,-6 12,-8 2,-1 3,-3 4,-5 1,-2 2,-5 2,-7 0,-4 -1,-7 -4,-9 -3,-3 -7,-4 -12,-4 -3,0 -5,1 -8,2 -2,1 -5,2 -6,4l0 0c4,0 7,1 9,3 2,2 3,4 3,8 0,4 -2,8 -4,10 -3,3 -7,4 -11,4 -5,0 -8,-2 -11,-4 -3,-3 -4,-7 -4,-12 0,-9 4,-16 11,-22 7,-6 17,-9 29,-9 12,0 21,3 29,9 7,5 11,13 11,22 0,7 -3,13 -7,18 -5,5 -14,9 -26,12 -1,1 -3,1 -6,2 -12,3 -19,7 -20,12 3,-2 6,-3 9,-4 4,-1 7,-2 10,-2 3,0 7,1 12,2 5,1 8,2 10,2 2,0 3,-1 4,-2 1,-2 2,-5 2,-8l0 -1 15 0c0,0 0,1 0,2 0,0 0,1 0,3 0,10 -2,17 -6,22 -4,5 -11,7 -19,7 -6,0 -12,-1 -20,-3 -8,-3 -13,-4 -15,-4 -2,0 -3,0 -5,1 -1,1 -2,2 -2,4l-16 0zm-195 -33l-6 0 0 -15 8 0c1,2 2,4 4,6 2,1 5,2 8,2 2,0 3,0 4,-1 1,-1 2,-1 2,-3 0,-1 -3,-3 -7,-4 -2,-1 -3,-1 -4,-1 -7,-2 -11,-4 -13,-6 -2,-2 -3,-5 -3,-8 0,-4 2,-7 6,-10 3,-2 8,-4 14,-4 3,0 5,1 8,1 2,1 5,1 7,3l1 -3 7 0 0 13 -7 0c-1,-2 -3,-3 -5,-5 -2,-1 -4,-1 -7,-1 -1,0 -3,0 -4,1 -1,0 -1,1 -1,2 0,2 2,3 6,5 1,0 2,0 3,0 0,1 1,1 2,1 5,1 8,3 10,4 2,1 3,3 4,4 0,2 1,4 1,6 0,4 -2,7 -5,10 -4,3 -9,4 -15,4 -3,0 -6,-1 -9,-1 -2,-1 -5,-2 -7,-3l-2 3zm50 -34l-5 0 0 -8 0 0c3,0 6,-1 8,-4 2,-2 3,-7 4,-12l11 0 0 16 12 0 0 8 -12 0 0 22c0,2 0,3 0,4 1,0 2,1 3,1 1,0 2,-1 3,-2 0,-1 0,-4 0,-7l0 -4 8 0 0 5c0,6 -1,10 -4,12 -2,3 -6,4 -12,4 -3,0 -5,0 -7,-1 -3,-1 -5,-2 -6,-4 -1,-1 -2,-3 -2,-4 0,-1 -1,-4 -1,-7l0 -19zm1550 237c-4,0 -8,2 -10,6 -2,4 -3,11 -3,20 0,9 1,15 3,19 2,4 6,6 10,6 5,0 8,-2 10,-6 2,-4 3,-10 3,-19 0,-9 -1,-16 -3,-20 -2,-4 -5,-6 -10,-6zm-39 26c0,-11 3,-20 10,-27 7,-6 17,-9 29,-9 12,0 22,3 29,9 7,7 10,16 10,27 0,11 -3,20 -10,26 -7,6 -17,10 -29,10 -12,0 -22,-4 -29,-10 -7,-6 -10,-15 -10,-26zm134 -34c14,0 24,3 30,8 7,6 10,14 10,26 0,11 -3,20 -10,25 -6,6 -16,9 -30,9l-37 0 0 -10 4 0c2,0 3,0 4,-1 1,0 1,-2 1,-4l0 -1 0 -37c0,-2 0,-4 -1,-5 -1,0 -2,0 -4,0l-4 0 0 -10 37 0zm-5 58l5 0c5,0 8,-2 11,-6 2,-3 3,-10 3,-18 0,-9 -1,-15 -3,-19 -3,-3 -6,-5 -11,-5l-5 0 0 48zm101 -58c13,0 23,3 30,8 6,6 10,14 10,26 0,11 -4,20 -10,25 -7,6 -17,9 -30,9l-37 0 0 -10 3 0c2,0 4,0 5,-1 0,0 1,-2 1,-4l0 -1 0 -37c0,-2 -1,-4 -1,-5 -1,0 -3,0 -5,0l-3 0 0 -10 37 0zm-6 58l6 0c4,0 8,-2 10,-6 2,-3 3,-10 3,-18 0,-9 -1,-15 -3,-19 -2,-3 -6,-5 -10,-5l-6 0 0 48zm177 -39l0 -9c4,0 8,-1 10,-3 3,-1 4,-3 5,-5l17 0 0 50c0,2 0,3 1,4 1,0 3,0 6,0l3 0 0 10 -42 0 0 -10 3 0c3,0 5,0 6,0 1,-1 2,-3 2,-6l0 0 0 -31 -11 0zm86 19c-3,2 -5,3 -8,3 -2,1 -4,1 -7,1 -6,0 -12,-2 -16,-5 -4,-4 -6,-9 -6,-15 0,-7 3,-12 7,-16 5,-4 12,-6 20,-6 10,0 17,3 23,9 5,5 8,13 8,23 0,11 -3,20 -9,26 -6,6 -14,10 -24,10 -7,0 -12,-2 -16,-5 -4,-2 -6,-6 -6,-10 0,-3 0,-5 2,-7 2,-1 5,-2 8,-2 2,0 5,0 7,2 1,1 2,3 2,6 0,1 0,2 -1,3 0,1 -1,2 -2,3 0,0 1,0 2,0 0,0 1,0 2,0 4,0 7,-1 10,-5 2,-4 4,-8 4,-14l0 -1zm-9 -29c-2,0 -4,1 -5,3 -1,2 -2,5 -2,8 0,4 1,7 2,9 1,2 3,3 5,3 3,0 4,-1 6,-3 1,-2 2,-5 2,-9 0,-3 -1,-6 -2,-8 -2,-2 -3,-3 -6,-3zm193 28l0 -9c3,0 6,-1 8,-2 2,-1 3,-3 3,-6 0,-3 -1,-6 -3,-7 -3,-2 -5,-3 -9,-3 -2,0 -4,0 -5,1 -2,0 -3,1 -4,3 2,0 4,0 5,1 1,2 2,3 2,5 0,3 -1,5 -3,7 -1,1 -4,2 -7,2 -3,0 -5,-1 -7,-3 -2,-2 -3,-4 -3,-7 0,-6 2,-10 8,-14 5,-3 12,-5 21,-5 8,0 15,2 19,5 5,3 7,7 7,13 0,3 -1,6 -3,8 -2,2 -5,4 -9,5 5,2 8,4 11,7 2,3 3,6 3,10 0,6 -2,11 -7,14 -5,4 -12,5 -21,5 -10,0 -18,-1 -23,-4 -5,-3 -8,-7 -8,-13 0,-3 1,-6 3,-8 3,-2 6,-3 9,-3 3,0 5,0 7,2 2,2 3,4 3,7 0,2 -1,4 -2,5 -1,1 -4,2 -7,2 2,1 3,2 5,2 2,1 4,1 6,1 4,0 7,-1 9,-3 2,-2 4,-5 4,-8 0,-3 -1,-6 -3,-7 -2,-2 -5,-3 -9,-3zm66 -8c3,-1 5,-2 7,-3 3,0 5,-1 8,-1 6,0 11,2 15,6 4,4 6,9 6,15 0,7 -2,12 -7,16 -4,4 -11,5 -19,5 -10,0 -18,-2 -23,-8 -6,-5 -8,-13 -8,-23 0,-11 3,-20 9,-26 6,-7 14,-10 24,-10 7,0 12,1 16,4 4,3 6,6 6,11 0,3 -1,5 -3,6 -1,2 -4,3 -7,3 -3,0 -5,-1 -7,-3 -2,-1 -3,-3 -3,-5 0,-1 1,-3 1,-4 1,-1 2,-2 3,-2 -1,-1 -1,-1 -2,-1 -1,0 -1,0 -2,0 -4,0 -8,2 -10,5 -3,4 -4,9 -4,15l0 0zm8 30c3,0 4,-1 6,-3 1,-3 2,-5 2,-9 0,-3 -1,-6 -2,-8 -2,-2 -3,-3 -6,-3 -2,0 -4,1 -5,3 -1,2 -2,5 -2,8 0,4 1,7 2,9 1,2 3,3 5,3zm-206 -28c-2,0 -4,1 -5,2 -1,2 -2,4 -2,7l0 0 -6 0 0 -15 43 0 0 15 -6 0 0 0c0,-3 -1,-5 -2,-7 -1,-1 -3,-2 -5,-2l-2 0 0 25c0,2 0,3 1,3 0,1 1,1 3,1l3 0 0 6 -27 0 0 -6 3 0c2,0 3,0 3,-1 0,0 1,-1 1,-3l0 -25 -2 0zm65 -1c-2,0 -4,1 -6,3 -1,3 -1,7 -1,12 0,6 0,10 1,12 2,2 4,4 6,4 3,0 5,-2 6,-4 2,-2 2,-6 2,-12 0,-5 0,-9 -2,-12 -1,-2 -3,-3 -6,-3zm-23 15c0,-7 2,-12 6,-16 4,-4 10,-5 17,-5 8,0 14,1 18,5 4,4 6,9 6,16 0,7 -2,12 -6,16 -4,4 -10,6 -18,6 -7,0 -13,-2 -17,-6 -4,-4 -6,-9 -6,-16zm-1906 -45l0 25 -11 0c-1,-3 -2,-6 -2,-8 -1,-1 -2,-3 -3,-4 -1,-1 -3,-2 -5,-3 -2,0 -5,0 -9,0l-2 0 -8 0 0 18 2 0c3,0 5,-1 7,-2 1,-2 1,-4 1,-8l0 -1 9 0 0 31 -9 0c0,-4 0,-8 -1,-9 -1,-1 -4,-2 -7,-2l-2 0 0 21 12 0c4,0 7,0 9,-1 2,0 3,-1 4,-3 1,-1 2,-3 3,-6 0,-2 1,-5 1,-8l11 0 0 28 -71 0 0 -10 3 0c2,0 4,0 4,-1 1,0 2,-2 2,-4l0 -1 0 -37c0,-2 -1,-4 -1,-5 -1,0 -3,0 -5,0l-3 0 0 -10 71 0zm28 18c-1,-3 -2,-5 -3,-6 -1,-2 -3,-2 -5,-2l-3 0 0 -10 40 0 0 10 -3 0c-2,0 -4,0 -4,0 -1,0 -1,1 -1,2 0,1 0,2 0,3 0,0 0,0 0,0l11 34 11 -34c0,-1 0,-1 0,-2 0,0 0,-1 0,-1 0,-1 0,-2 -1,-2 0,0 -2,0 -4,0l-3 0 0 -10 31 0 0 10 -2 0c-2,0 -4,0 -5,1 -1,1 -2,3 -3,5l-17 52 -23 0 -16 -50zm151 -18l0 25 -11 0c-1,-3 -2,-6 -2,-8 -1,-1 -2,-3 -3,-4 -1,-1 -3,-2 -5,-3 -2,0 -5,0 -9,0l-2 0 -8 0 0 18 2 0c3,0 5,-1 7,-2 1,-2 1,-4 1,-8l0 -1 9 0 0 31 -9 0c0,-4 0,-8 -1,-9 -1,-1 -4,-2 -7,-2l-2 0 0 21 12 0c4,0 7,0 9,-1 2,0 3,-1 4,-3 1,-1 2,-3 3,-6 0,-2 1,-5 1,-8l11 0 0 28 -71 0 0 -10 3 0c2,0 4,0 4,-1 1,0 1,-2 1,-4l0 -1 0 -37c0,-2 0,-4 -1,-5 0,0 -2,0 -4,0l-3 0 0 -10 71 0zm55 0l24 46 0 -31c0,-2 0,-4 -1,-5 0,0 -2,0 -4,0l-4 0 0 -10 30 0 0 10 -3 0c-2,0 -3,0 -4,0 -1,1 -1,3 -1,5l0 53 -23 0 -27 -49 0 33c0,3 1,4 1,5 1,1 3,1 5,1l3 0 0 10 -30 0 0 -10 3 0c3,0 4,0 5,-1 1,-1 1,-2 1,-5l0 -37c0,-2 0,-4 -1,-5 -1,0 -2,0 -5,0l-3 0 0 -10 34 0zm-747 19l0 -9c4,0 8,-1 10,-3 3,-1 4,-3 5,-5l17 0 0 50c0,2 0,3 1,4 1,0 3,1 6,1l3 0 0 9 -42 0 0 -9 3 0c3,0 5,-1 6,-1 1,-1 2,-3 2,-5l0 -1 0 -31 -11 0zm197 0l0 -9c4,0 7,-1 10,-3 2,-1 4,-3 5,-5l17 0 0 50c0,2 0,3 1,4 1,0 3,1 6,1l3 0 0 9 -42 0 0 -9 3 0c3,0 5,-1 6,-1 1,-1 2,-3 2,-5l0 -1 0 -31 -11 0zm65 15c-3,-2 -5,-4 -7,-6 -1,-3 -2,-6 -2,-9 0,-6 3,-10 8,-14 5,-3 12,-5 20,-5 9,0 15,1 20,4 4,3 7,7 7,12 0,3 -1,6 -3,8 -1,2 -4,3 -7,4 5,3 8,5 10,8 3,3 4,7 4,11 0,6 -3,11 -9,15 -5,4 -13,6 -23,6 -10,0 -17,-2 -22,-5 -5,-3 -8,-8 -8,-14 0,-3 1,-6 3,-9 2,-2 5,-4 9,-6zm10 5c-2,2 -4,3 -5,5 -1,1 -2,3 -2,5 0,3 1,5 4,7 3,2 7,3 11,3 4,0 7,-1 9,-2 2,-1 3,-3 3,-5 0,-2 -1,-3 -2,-5 -2,-1 -4,-2 -8,-4l-10 -4zm15 -15c2,-1 4,-2 5,-3 1,-2 1,-3 1,-5 0,-2 -1,-3 -3,-5 -2,-1 -5,-2 -8,-2 -3,0 -5,1 -7,2 -2,1 -3,2 -3,4 0,1 1,3 2,4 1,1 4,2 7,3l6 2zm-204 7c-2,0 -4,1 -5,2 -1,2 -2,4 -2,7l0 0 -6 0 0 -15 43 0 0 15 -6 0 0 0c0,-3 0,-5 -2,-7 -1,-1 -2,-2 -5,-2l-2 0 0 25c0,2 1,3 1,3 0,1 1,1 3,1l3 0 0 6 -27 0 0 -6 4 0c1,0 2,0 2,0 1,-1 1,-2 1,-4l0 -25 -2 0zm66 -1c-3,0 -5,1 -6,3 -2,3 -2,7 -2,12 0,6 0,10 2,12 1,3 3,4 6,4 3,0 5,-1 6,-4 1,-2 2,-6 2,-12 0,-5 -1,-9 -2,-12 -1,-2 -3,-3 -6,-3zm-24 15c0,-6 2,-12 6,-16 4,-4 10,-5 18,-5 7,0 13,1 17,5 4,4 7,10 7,16 0,7 -3,12 -7,16 -4,4 -10,6 -17,6 -8,0 -14,-2 -18,-6 -4,-4 -6,-9 -6,-16zm-199 -357l0 208 907 0 0 -208 -907 0zm0 217l0 169c0,24 10,46 26,63 16,16 38,26 63,26l364 0 0 -258 -453 0zm462 258l445 0 0 -258 -445 0 0 258zm453 0l450 0 0 -258 -450 0 0 258zm459 0l440 0 0 -258 -440 0 0 258zm449 0l444 0 0 -258 -444 0 0 258zm453 0l356 0c24,0 47,-10 63,-26 16,-17 26,-39 26,-63l0 -169 -445 0 0 258zm445 -267l0 -208 -898 0 0 208 898 0zm9 -208l0 386c0,27 -11,51 -29,69 -18,17 -42,29 -69,29l-2543 0c-27,0 -52,-12 -69,-29 -18,-18 -29,-42 -29,-69l0 -386c-13,0 -24,0 -34,1 -71,0 -102,1 -131,-35 -22,-28 -41,-76 -76,-163 -24,-58 -54,-133 -96,-230l-1 -2 1 -1c42,-97 72,-172 96,-230 35,-87 54,-135 76,-163 29,-36 60,-36 131,-35 10,0 21,0 35,0l3 0 2870 0c26,0 49,11 66,28 17,17 28,41 28,66l0 670c0,26 -11,50 -28,67 -17,17 -40,27 -66,27l-135 0zm-1815 208l899 0 0 -208 -899 0 0 208zm1950 -542c0,0 -1,0 -1,0 0,0 -1,0 -1,0 -4,0 -7,-1 -10,-2 -3,-2 -5,-4 -8,-8 -1,-1 -3,-4 -5,-7 -1,-3 -3,-5 -4,-6 -1,-1 -2,-2 -3,-3 -1,0 -2,-1 -4,-1 -2,0 -4,1 -5,3 -1,1 -2,3 -2,6 0,2 1,3 1,5 1,1 1,2 3,3l0 0c0,-2 0,-4 1,-5 1,-1 3,-1 4,-1 3,0 5,0 6,2 1,1 2,3 2,6 0,2 -1,4 -2,6 -2,1 -4,2 -7,2 -5,0 -9,-2 -12,-6 -3,-4 -5,-10 -5,-16 0,-7 2,-12 5,-16 3,-4 7,-6 12,-6 4,0 8,1 10,4 3,3 5,7 7,14 0,1 1,2 1,3 2,7 4,11 7,11 -1,-1 -2,-3 -3,-5 0,-2 0,-3 0,-5 0,-2 0,-4 1,-7 0,-3 1,-4 1,-5 0,-1 -1,-2 -2,-3 -1,0 -2,-1 -4,-1l-1 0 0 -8c1,0 1,0 1,0 1,0 1,0 2,0 6,0 10,1 12,3 3,3 4,6 4,11 0,3 0,7 -2,11 -1,4 -2,7 -2,8 0,1 1,2 1,3 0,0 1,1 2,1l0 9zm-36 -155l-8 0c0,-3 -1,-6 -2,-8 -1,-2 -2,-3 -4,-4l0 -13 39 0c2,0 3,0 3,-1 0,-1 1,-2 1,-5l0 -2 7 0 0 33 -7 0 0 -2c0,-3 -1,-4 -1,-5 0,-1 -2,-1 -4,-1l0 0 -24 0 0 8zm11 84c0,1 0,2 1,3 2,1 3,2 5,2l0 0 0 4 -11 0 0 -31 11 0 0 4 0 0c-2,0 -3,0 -5,1 -1,1 -1,2 -1,4l0 1 18 0c1,0 2,0 2,0 1,0 1,-1 1,-2l0 -3 4 0 0 20 -4 0 0 -2c0,-1 0,-2 -1,-2 0,-1 -1,-1 -2,-1l-18 0 0 2zm-1 -48c0,2 1,3 2,4 2,1 5,2 9,2 4,0 7,-1 9,-2 1,-1 2,-2 2,-4 0,-2 -1,-4 -2,-5 -2,0 -5,-1 -9,-1 -4,0 -7,1 -9,1 -1,1 -2,3 -2,5zm11 17c-5,0 -9,-1 -12,-4 -2,-4 -4,-8 -4,-13 0,-6 2,-10 4,-13 3,-3 7,-4 12,-4 5,0 9,1 12,4 2,3 4,7 4,13 0,5 -2,9 -4,13 -3,3 -7,4 -12,4zm15 383c0,0 -1,0 -1,0 0,0 -1,0 -1,0 -4,0 -7,-1 -10,-2 -3,-2 -5,-4 -8,-8 -1,-1 -3,-3 -5,-7 -1,-3 -3,-5 -4,-6 -1,-1 -2,-2 -3,-3 -1,0 -2,-1 -4,-1 -2,0 -4,1 -5,3 -1,1 -2,3 -2,6 0,2 1,3 1,5 1,1 1,2 3,3l0 0c0,-2 0,-4 1,-5 1,-1 3,-1 4,-1 3,0 5,0 6,2 1,1 2,3 2,6 0,2 -1,4 -2,6 -2,1 -4,2 -7,2 -5,0 -9,-2 -12,-6 -3,-4 -5,-10 -5,-16 0,-7 2,-12 5,-16 3,-4 7,-6 12,-6 4,0 8,1 10,4 3,3 5,7 7,14 0,1 1,2 1,3 2,7 4,11 7,12 -1,-2 -2,-4 -3,-6 0,-2 0,-3 0,-5 0,-2 0,-4 1,-7 0,-2 1,-4 1,-5 0,-1 -1,-2 -2,-3 -1,0 -2,-1 -4,-1l-1 0 0 -8c1,0 1,0 1,0 1,0 1,0 2,0 6,0 10,1 12,3 3,3 4,6 4,11 0,3 0,7 -2,11 -1,4 -2,7 -2,8 0,1 1,2 1,3 0,0 1,1 2,1l0 9zm-36 -155l-8 0c0,-3 -1,-6 -2,-8 -1,-2 -2,-3 -4,-4l0 -13 39 0c2,0 3,0 3,-1 0,-1 1,-2 1,-5l0 -1 7 0 0 32 -7 0 0 -2c0,-3 -1,-4 -1,-5 0,-1 -2,-1 -4,-1l0 0 -24 0 0 8zm11 84c0,1 0,2 1,3 2,1 3,2 5,2l0 0 0 4 -11 0 0 -31 11 0 0 4 0 0c-2,0 -3,0 -5,1 -1,1 -1,2 -1,4l0 1 18 0c1,0 2,0 2,0 1,0 1,-1 1,-2l0 -3 4 0 0 20 -4 0 0 -2c0,-1 0,-2 -1,-2 0,-1 -1,-1 -2,-1l-18 0 0 2zm-1 -48c0,2 1,3 2,4 2,1 5,2 9,2 4,0 7,-1 9,-2 1,-1 2,-2 2,-4 0,-2 -1,-4 -2,-4 -2,-1 -5,-2 -9,-2 -4,0 -7,1 -9,2 -1,0 -2,2 -2,4zm11 17c-5,0 -9,-1 -12,-4 -2,-3 -4,-8 -4,-13 0,-5 2,-10 4,-13 3,-3 7,-4 12,-4 5,0 9,1 12,4 2,3 4,8 4,13 0,5 -2,10 -4,13 -3,3 -7,4 -12,4zm15 -461c0,0 -1,0 -1,0 0,0 -1,0 -1,0 -4,0 -7,-1 -10,-2 -3,-2 -5,-4 -8,-8 -1,-1 -3,-4 -5,-7 -1,-3 -3,-5 -4,-6 -1,-1 -2,-2 -3,-3 -1,0 -2,-1 -4,-1 -2,0 -4,1 -5,3 -1,1 -2,3 -2,6 0,2 1,3 1,5 1,1 1,2 3,3l0 0c0,-2 0,-4 1,-5 1,-1 3,-1 4,-1 3,0 5,0 6,2 1,1 2,3 2,6 0,2 -1,4 -2,6 -2,1 -4,2 -7,2 -5,0 -9,-2 -12,-6 -3,-4 -5,-10 -5,-16 0,-7 2,-12 5,-16 3,-4 7,-6 12,-6 4,0 8,1 10,4 3,3 5,7 7,14 0,1 1,2 1,3 2,7 4,11 7,11 -1,-1 -2,-3 -3,-5 0,-2 0,-3 0,-5 0,-2 0,-4 1,-7 0,-3 1,-4 1,-5 0,-1 -1,-2 -2,-3 -1,0 -2,-1 -4,-1l-1 0 0 -8c1,0 1,0 1,0 1,0 1,0 2,0 6,0 10,1 12,3 3,3 4,6 4,11 0,3 0,7 -2,11 -1,4 -2,7 -2,8 0,1 1,2 1,3 0,0 1,1 2,1l0 9zm-36 -155l-8 0c0,-3 -1,-6 -2,-8 -1,-2 -2,-3 -4,-4l0 -13 39 0c2,0 3,0 3,-1 0,-1 1,-2 1,-5l0 -1 7 0 0 32 -7 0 0 -2c0,-3 -1,-4 -1,-5 0,-1 -2,-1 -4,-1l0 0 -24 0 0 8zm11 84c0,1 0,2 1,3 2,1 3,2 5,2l0 0 0 4 -11 0 0 -31 11 0 0 4 0 0c-2,0 -3,0 -5,1 -1,1 -1,2 -1,4l0 1 18 0c1,0 2,0 2,0 1,0 1,-1 1,-2l0 -3 4 0 0 20 -4 0 0 -2c0,-1 0,-2 -1,-2 0,-1 -1,-1 -2,-1l-18 0 0 2zm-1 -48c0,2 1,3 2,4 2,1 5,2 9,2 4,0 7,-1 9,-2 1,-1 2,-2 2,-4 0,-2 -1,-4 -2,-5 -2,0 -5,-1 -9,-1 -4,0 -7,1 -9,1 -1,1 -2,3 -2,5zm11 17c-5,0 -9,-1 -12,-4 -2,-4 -4,-8 -4,-13 0,-6 2,-10 4,-13 3,-3 7,-4 12,-4 5,0 9,1 12,4 2,3 4,8 4,13 0,5 -2,10 -4,13 -3,3 -7,4 -12,4zm-2850 424l226 0 0 -268 -226 0 0 268zm0 -277l226 0 0 -278 -226 0 0 278zm235 -278l0 278 218 0 0 -278 -218 0zm227 0l0 278 218 0 0 -278 -218 0zm227 0l0 278 218 0 0 -278 -218 0zm226 0l0 278 218 0 0 -278 -218 0zm227 0l0 278 218 0 0 -278 -218 0zm227 0l0 278 218 0 0 -278 -218 0zm227 0l0 278 218 0 0 -278 -218 0zm227 0l0 278 218 0 0 -278 -218 0zm226 0l0 278 218 0 0 -278 -218 0zm227 0l0 278 218 0 0 -278 -218 0zm227 0l0 278 218 0 0 -278 -218 0zm227 0l0 278 220 0 0 -193c0,-23 -9,-44 -25,-60 -15,-15 -37,-25 -60,-25l-135 0zm220 287l-220 0 0 268 220 0 0 -268zm0 277l-220 0 0 276 135 0c23,0 45,-9 60,-25 16,-15 25,-36 25,-60l0 -191zm-229 276l0 -276 -218 0 0 276 218 0zm-227 0l0 -276 -218 0 0 276 218 0zm-227 0l0 -276 -218 0 0 276 218 0zm-226 0l0 -276 -218 0 0 276 218 0zm-227 0l0 -276 -218 0 0 276 218 0zm-227 0l0 -276 -218 0 0 276 218 0zm-227 0l0 -276 -218 0 0 276 218 0zm-227 0l0 -276 -218 0 0 276 218 0zm-226 0l0 -276 -218 0 0 276 218 0zm-227 0l0 -276 -218 0 0 276 218 0zm-227 0l0 -276 -218 0 0 276 218 0zm-227 0l0 -276 -226 0 0 276 226 0zm9 -285l218 0 0 -268 -218 0 0 268zm227 0l218 0 0 -268 -218 0 0 268zm227 0l218 0 0 -268 -218 0 0 268zm226 0l218 0 0 -268 -218 0 0 268zm227 0l218 0 0 -268 -218 0 0 268zm227 0l218 0 0 -268 -218 0 0 268zm227 0l218 0 0 -268 -218 0 0 268zm227 0l218 0 0 -268 -218 0 0 268zm226 0l218 0 0 -268 -218 0 0 268zm227 0l218 0 0 -268 -218 0 0 268zm227 0l218 0 0 -268 -218 0 0 268zm-2776 -135c0,-38 13,-74 34,-99 21,-26 51,-42 83,-42 32,0 62,16 83,42 21,25 34,61 34,99 0,39 -13,74 -34,100 -21,26 -51,42 -83,42 -32,0 -62,-16 -83,-42 -21,-26 -34,-61 -34,-100zm41 -94c-20,24 -32,58 -32,94 0,37 12,70 32,94 20,24 46,39 76,39 30,0 57,-15 76,-39 20,-24 32,-57 32,-94 0,-36 -12,-70 -32,-94 -19,-23 -46,-38 -76,-38 -30,0 -56,15 -76,38zm76 78c-16,0 -27,1 -34,4 -7,3 -10,7 -10,12 0,6 3,10 10,13 7,2 18,4 34,4 16,0 27,-2 34,-4 7,-3 11,-7 11,-13 0,-5 -4,-9 -11,-12 -7,-3 -18,-4 -34,-4zm0 75c-19,0 -34,-5 -46,-16 -12,-11 -18,-25 -18,-43 0,-17 6,-31 18,-42 12,-11 27,-17 46,-17 19,0 35,6 46,17 12,11 18,25 18,43 0,17 -6,31 -18,42 -11,11 -27,16 -46,16z"/>
  </g>
 </g>
</svg>
